<?xml version="1.0"?>
<!DOCTYPE svg PUBLIC "-//W3C//DTD SVG 1.1//EN" "http://www.w3.org/Graphics/SVG/1.1/DTD/svg11.dtd">
<svg width="269.28mm" height="103.28000000000003mm" viewBox="0 0 269.28 103.28000000000003" xmlns="http://www.w3.org/2000/svg" version="1.1">
<g id="Group044" transform="translate(9.640000,12.640000) scale(1,-1)">
<path id="Line329_w0000"  d="M 119.0 -5.0 L 119.0 10.000000000000002 " stroke="#000000" stroke-width="0.35 px" style="stroke-width:0.35;stroke-miterlimit:4;stroke-dasharray:none;fill:none;fill-rule: evenodd "/>
<path id="Line325_w0000"  d="M 131.0 -5.0 L 131.0 10.0 " stroke="#000000" stroke-width="0.35 px" style="stroke-width:0.35;stroke-miterlimit:4;stroke-dasharray:none;fill:none;fill-rule: evenodd "/>
<path id="Line331_w0000"  d="M 131.0 10.000000000000009 L 255.0 10.0 " stroke="#000000" stroke-width="0.35 px" style="stroke-width:0.35;stroke-miterlimit:4;stroke-dasharray:none;fill:none;fill-rule: evenodd "/>
<path id="Line330_w0000"  d="M 257.0 7.9999999999999964 L 257.0 -86.00000000000004 " stroke="#000000" stroke-width="0.35 px" style="stroke-width:0.35;stroke-miterlimit:4;stroke-dasharray:none;fill:none;fill-rule: evenodd "/>
<path id="Line326_w0000"  d="M 255.0 -88.0 L -5.0 -88.0 " stroke="#000000" stroke-width="0.35 px" style="stroke-width:0.35;stroke-miterlimit:4;stroke-dasharray:none;fill:none;fill-rule: evenodd "/>
<path id="Line327_w0000"  d="M 119.0 10.0 L -5.0 10.0 " stroke="#000000" stroke-width="0.35 px" style="stroke-width:0.35;stroke-miterlimit:4;stroke-dasharray:none;fill:none;fill-rule: evenodd "/>
<path id="Line328_w0000"  d="M -7.0 -86.0 L -7.0 8.0 " stroke="#000000" stroke-width="0.35 px" style="stroke-width:0.35;stroke-miterlimit:4;stroke-dasharray:none;fill:none;fill-rule: evenodd "/>
<path id="Arc109_nwe0000"  d="M -5.0 10.0 A 2 2 0 0 1 -7 8" stroke="#000000" stroke-width="0.35 px" style="stroke-width:0.35;stroke-miterlimit:4;stroke-dasharray:none;fill:none;fill-rule: evenodd "/>
<path id="Arc108_nwe0000"  d="M -7.000000000000005 -86.0 A 2 2 0 0 1 -5 -88" stroke="#000000" stroke-width="0.35 px" style="stroke-width:0.35;stroke-miterlimit:4;stroke-dasharray:none;fill:none;fill-rule: evenodd "/>
<path id="Arc111_nwe0000"  d="M 255.0 -87.99999999999999 A 2 2 0 0 1 257 -86" stroke="#000000" stroke-width="0.35 px" style="stroke-width:0.35;stroke-miterlimit:4;stroke-dasharray:none;fill:none;fill-rule: evenodd "/>
<path id="Arc112_nwe0000"  d="M 257.0 8.000000000000028 A 2 2 0 0 1 255 10" stroke="#000000" stroke-width="0.35 px" style="stroke-width:0.35;stroke-miterlimit:4;stroke-dasharray:none;fill:none;fill-rule: evenodd "/>
<circle cx="105.375" cy="5.500000000000016" r="1.25" stroke="#000000" stroke-width="0.35 px" style="stroke-width:0.35;stroke-miterlimit:4;stroke-dasharray:none;fill:none"/>
<circle cx="144.625" cy="5.500000000000022" r="1.25" stroke="#000000" stroke-width="0.35 px" style="stroke-width:0.35;stroke-miterlimit:4;stroke-dasharray:none;fill:none"/>
<circle cx="124.99969135" cy="-83.49999999999993" r="1.25" stroke="#000000" stroke-width="0.35 px" style="stroke-width:0.35;stroke-miterlimit:4;stroke-dasharray:none;fill:none"/>
<circle cx="-2.499999999999999" cy="5.5" r="1.25" stroke="#000000" stroke-width="0.35 px" style="stroke-width:0.35;stroke-miterlimit:4;stroke-dasharray:none;fill:none"/>
<circle cx="-2.50000000000001" cy="-83.5" r="1.25" stroke="#000000" stroke-width="0.35 px" style="stroke-width:0.35;stroke-miterlimit:4;stroke-dasharray:none;fill:none"/>
<circle cx="252.5" cy="5.500000000000032" r="1.25" stroke="#000000" stroke-width="0.35 px" style="stroke-width:0.35;stroke-miterlimit:4;stroke-dasharray:none;fill:none"/>
<circle cx="252.5" cy="-83.49999999999999" r="1.25" stroke="#000000" stroke-width="0.35 px" style="stroke-width:0.35;stroke-miterlimit:4;stroke-dasharray:none;fill:none"/>
<path id="Line332_w0000"  d="M 119.0 -4.999999999999993 L 131.0 -4.999999999999994 " stroke="#000000" stroke-width="0.35 px" style="stroke-width:0.35;stroke-miterlimit:4;stroke-dasharray:none;fill:none;fill-rule: evenodd "/>
<title>b'Bottom'</title>
</g>
<g id="Line329" transform="translate(9.640000,12.640000) scale(1,-1)">
<path id="Line329_w0000"  d="M 119.0 -5.0 L 119.0 10.000000000000002 " stroke="#000000" stroke-width="0.35 px" style="stroke-width:0.35;stroke-miterlimit:4;stroke-dasharray:none;fill:none;fill-rule: evenodd "/>
<title>b'Line329'</title>
</g>
<g id="Line325" transform="translate(9.640000,12.640000) scale(1,-1)">
<path id="Line325_w0000"  d="M 131.0 -5.0 L 131.0 10.0 " stroke="#000000" stroke-width="0.35 px" style="stroke-width:0.35;stroke-miterlimit:4;stroke-dasharray:none;fill:none;fill-rule: evenodd "/>
<title>b'Line325'</title>
</g>
<g id="Line331" transform="translate(9.640000,12.640000) scale(1,-1)">
<path id="Line331_w0000"  d="M 131.0 10.000000000000009 L 255.0 10.0 " stroke="#000000" stroke-width="0.35 px" style="stroke-width:0.35;stroke-miterlimit:4;stroke-dasharray:none;fill:none;fill-rule: evenodd "/>
<title>b'Line331'</title>
</g>
<g id="Line330" transform="translate(9.640000,12.640000) scale(1,-1)">
<path id="Line330_w0000"  d="M 257.0 7.9999999999999964 L 257.0 -86.00000000000004 " stroke="#000000" stroke-width="0.35 px" style="stroke-width:0.35;stroke-miterlimit:4;stroke-dasharray:none;fill:none;fill-rule: evenodd "/>
<title>b'Line330'</title>
</g>
<g id="Line326" transform="translate(9.640000,12.640000) scale(1,-1)">
<path id="Line326_w0000"  d="M 255.0 -88.0 L -5.0 -88.0 " stroke="#000000" stroke-width="0.35 px" style="stroke-width:0.35;stroke-miterlimit:4;stroke-dasharray:none;fill:none;fill-rule: evenodd "/>
<title>b'Line326'</title>
</g>
<g id="Line327" transform="translate(9.640000,12.640000) scale(1,-1)">
<path id="Line327_w0000"  d="M 119.0 10.0 L -5.0 10.0 " stroke="#000000" stroke-width="0.35 px" style="stroke-width:0.35;stroke-miterlimit:4;stroke-dasharray:none;fill:none;fill-rule: evenodd "/>
<title>b'Line327'</title>
</g>
<g id="Line328" transform="translate(9.640000,12.640000) scale(1,-1)">
<path id="Line328_w0000"  d="M -7.0 -86.0 L -7.0 8.0 " stroke="#000000" stroke-width="0.35 px" style="stroke-width:0.35;stroke-miterlimit:4;stroke-dasharray:none;fill:none;fill-rule: evenodd "/>
<title>b'Line328'</title>
</g>
<g id="Arc109" transform="translate(9.640000,12.640000) scale(1,-1)">
<path id="Arc109_nwe0000"  d="M -5.0 10.0 A 2 2 0 0 1 -7 8" stroke="#000000" stroke-width="0.35 px" style="stroke-width:0.35;stroke-miterlimit:4;stroke-dasharray:none;fill:none;fill-rule: evenodd "/>
<title>b'Arc109'</title>
</g>
<g id="Arc108" transform="translate(9.640000,12.640000) scale(1,-1)">
<path id="Arc108_nwe0000"  d="M -7.000000000000005 -86.0 A 2 2 0 0 1 -5 -88" stroke="#000000" stroke-width="0.35 px" style="stroke-width:0.35;stroke-miterlimit:4;stroke-dasharray:none;fill:none;fill-rule: evenodd "/>
<title>b'Arc108'</title>
</g>
<g id="Arc111" transform="translate(9.640000,12.640000) scale(1,-1)">
<path id="Arc111_nwe0000"  d="M 255.0 -87.99999999999999 A 2 2 0 0 1 257 -86" stroke="#000000" stroke-width="0.35 px" style="stroke-width:0.35;stroke-miterlimit:4;stroke-dasharray:none;fill:none;fill-rule: evenodd "/>
<title>b'Arc111'</title>
</g>
<g id="Arc112" transform="translate(9.640000,12.640000) scale(1,-1)">
<path id="Arc112_nwe0000"  d="M 257.0 8.000000000000028 A 2 2 0 0 1 255 10" stroke="#000000" stroke-width="0.35 px" style="stroke-width:0.35;stroke-miterlimit:4;stroke-dasharray:none;fill:none;fill-rule: evenodd "/>
<title>b'Arc112'</title>
</g>
<g id="Circle035" transform="translate(9.640000,12.640000) scale(1,-1)">
<circle cx="105.375" cy="5.500000000000016" r="1.25" stroke="#000000" stroke-width="0.35 px" style="stroke-width:0.35;stroke-miterlimit:4;stroke-dasharray:none;fill:none"/>
<title>b'Circle035'</title>
</g>
<g id="Circle036" transform="translate(9.640000,12.640000) scale(1,-1)">
<circle cx="144.625" cy="5.500000000000022" r="1.25" stroke="#000000" stroke-width="0.35 px" style="stroke-width:0.35;stroke-miterlimit:4;stroke-dasharray:none;fill:none"/>
<title>b'Circle036'</title>
</g>
<g id="Circle034" transform="translate(9.640000,12.640000) scale(1,-1)">
<circle cx="124.99969135" cy="-83.49999999999993" r="1.25" stroke="#000000" stroke-width="0.35 px" style="stroke-width:0.35;stroke-miterlimit:4;stroke-dasharray:none;fill:none"/>
<title>b'Circle034'</title>
</g>
<g id="Circle037" transform="translate(9.640000,12.640000) scale(1,-1)">
<circle cx="-2.499999999999999" cy="5.5" r="1.25" stroke="#000000" stroke-width="0.35 px" style="stroke-width:0.35;stroke-miterlimit:4;stroke-dasharray:none;fill:none"/>
<title>b'Circle037'</title>
</g>
<g id="Circle039" transform="translate(9.640000,12.640000) scale(1,-1)">
<circle cx="-2.50000000000001" cy="-83.5" r="1.25" stroke="#000000" stroke-width="0.35 px" style="stroke-width:0.35;stroke-miterlimit:4;stroke-dasharray:none;fill:none"/>
<title>b'Circle039'</title>
</g>
<g id="Circle038" transform="translate(9.640000,12.640000) scale(1,-1)">
<circle cx="252.5" cy="5.500000000000032" r="1.25" stroke="#000000" stroke-width="0.35 px" style="stroke-width:0.35;stroke-miterlimit:4;stroke-dasharray:none;fill:none"/>
<title>b'Circle038'</title>
</g>
<g id="Circle040" transform="translate(9.640000,12.640000) scale(1,-1)">
<circle cx="252.5" cy="-83.49999999999999" r="1.25" stroke="#000000" stroke-width="0.35 px" style="stroke-width:0.35;stroke-miterlimit:4;stroke-dasharray:none;fill:none"/>
<title>b'Circle040'</title>
</g>
<g id="Line332" transform="translate(9.640000,12.640000) scale(1,-1)">
<path id="Line332_w0000"  d="M 119.0 -4.999999999999993 L 131.0 -4.999999999999994 " stroke="#000000" stroke-width="0.35 px" style="stroke-width:0.35;stroke-miterlimit:4;stroke-dasharray:none;fill:none;fill-rule: evenodd "/>
<title>b'Line332'</title>
</g>
</svg>