<?xml version="1.0"?>
<!DOCTYPE svg PUBLIC "-//W3C//DTD SVG 1.1//EN" "http://www.w3.org/Graphics/SVG/1.1/DTD/svg11.dtd">
<svg width="269.28mm" height="103.28000000000003mm" viewBox="0 0 269.28 103.28000000000003" xmlns="http://www.w3.org/2000/svg" version="1.1">
<g id="Group010" transform="translate(9.640000,12.640000) scale(1,-1)">
<path id="Line084_w0000"  d="M 1.5 0.0 L 248.5 0.0 " stroke="#000000" stroke-width="0.35 px" style="stroke-width:0.35;stroke-miterlimit:4;stroke-dasharray:none;fill:none;fill-rule: evenodd "/>
<path id="Line085_w0000"  d="M 0.5 -1.0 L 0.5 -77.0 " stroke="#000000" stroke-width="0.35 px" style="stroke-width:0.35;stroke-miterlimit:4;stroke-dasharray:none;fill:none;fill-rule: evenodd "/>
<path id="Line087_w0000"  d="M 249.5 -77.0 L 249.5 -1.0 " stroke="#000000" stroke-width="0.35 px" style="stroke-width:0.35;stroke-miterlimit:4;stroke-dasharray:none;fill:none;fill-rule: evenodd "/>
<path id="Arc040_nwe0000"  d="M 1.500000000000001 0.0 A 1 1 0 0 1 0.5 -1" stroke="#000000" stroke-width="0.35 px" style="stroke-width:0.35;stroke-miterlimit:4;stroke-dasharray:none;fill:none;fill-rule: evenodd "/>
<path id="Arc041_nwe0000"  d="M 0.5 -77.0 A 1 1 0 0 1 1.5 -78" stroke="#000000" stroke-width="0.35 px" style="stroke-width:0.35;stroke-miterlimit:4;stroke-dasharray:none;fill:none;fill-rule: evenodd "/>
<path id="Arc042_nwe0000"  d="M 248.5 -77.99999999999999 A 1 1 0 0 1 249.5 -77" stroke="#000000" stroke-width="0.35 px" style="stroke-width:0.35;stroke-miterlimit:4;stroke-dasharray:none;fill:none;fill-rule: evenodd "/>
<path id="Arc043_nwe0000"  d="M 249.49999982118607 -0.999999999999942 A 1 1 0 0 1 248.5 6.01741e-14" stroke="#000000" stroke-width="0.35 px" style="stroke-width:0.35;stroke-miterlimit:4;stroke-dasharray:none;fill:none;fill-rule: evenodd "/>
<path id="Arc044_nwe0000"  d="M 43.53680769999996 -77.0 A 1 1 0 0 1 44.5368 -78" stroke="#000000" stroke-width="0.35 px" style="stroke-width:0.35;stroke-miterlimit:4;stroke-dasharray:none;fill:none;fill-rule: evenodd "/>
<path id="Arc045_nwe0000"  d="M 24.486807699999957 -78.0 A 1 1 0 0 1 25.4868 -77" stroke="#000000" stroke-width="0.35 px" style="stroke-width:0.35;stroke-miterlimit:4;stroke-dasharray:none;fill:none;fill-rule: evenodd "/>
<path id="Arc046_nwe0000"  d="M 205.46195770000003 -77.99999999999999 A 1 1 0 0 1 206.462 -77" stroke="#000000" stroke-width="0.35 px" style="stroke-width:0.35;stroke-miterlimit:4;stroke-dasharray:none;fill:none;fill-rule: evenodd "/>
<path id="Arc047_nwe0000"  d="M 224.51195770000004 -76.99999999999999 A 1 1 0 0 1 225.512 -78" stroke="#000000" stroke-width="0.35 px" style="stroke-width:0.35;stroke-miterlimit:4;stroke-dasharray:none;fill:none;fill-rule: evenodd "/>
<path id="Line246_w0000"  d="M 25.48680769999995 -59.04922649999995 L 43.53680769999994 -59.049226499999946 " stroke="#000000" stroke-width="0.35 px" style="stroke-width:0.35;stroke-miterlimit:4;stroke-dasharray:none;fill:none;fill-rule: evenodd "/>
<path id="Line247_w0000"  d="M 206.46195770000003 -59.049226499999925 L 224.51195770000004 -59.049226499999925 " stroke="#000000" stroke-width="0.35 px" style="stroke-width:0.35;stroke-miterlimit:4;stroke-dasharray:none;fill:none;fill-rule: evenodd "/>
<path id="Line248_w0000"  d="M 1.499999999999997 -78.0 L 24.486807699999954 -78.0 " stroke="#000000" stroke-width="0.35 px" style="stroke-width:0.35;stroke-miterlimit:4;stroke-dasharray:none;fill:none;fill-rule: evenodd "/>
<path id="Line249_w0000"  d="M 44.536807699999954 -78.0 L 205.46195770000003 -77.99999999999997 " stroke="#000000" stroke-width="0.35 px" style="stroke-width:0.35;stroke-miterlimit:4;stroke-dasharray:none;fill:none;fill-rule: evenodd "/>
<path id="Line250_w0000"  d="M 225.51195770000004 -77.99999999999997 L 248.5 -78.00000000000004 " stroke="#000000" stroke-width="0.35 px" style="stroke-width:0.35;stroke-miterlimit:4;stroke-dasharray:none;fill:none;fill-rule: evenodd "/>
<path id="Line251_w0000"  d="M 25.486807699999947 -59.04922649999995 L 25.486807699999947 -77.0 " stroke="#000000" stroke-width="0.35 px" style="stroke-width:0.35;stroke-miterlimit:4;stroke-dasharray:none;fill:none;fill-rule: evenodd "/>
<path id="Line252_w0000"  d="M 43.53680769999993 -59.049226499999946 L 43.53680769999993 -77.0 " stroke="#000000" stroke-width="0.35 px" style="stroke-width:0.35;stroke-miterlimit:4;stroke-dasharray:none;fill:none;fill-rule: evenodd "/>
<path id="Line253_w0000"  d="M 206.46195770000003 -59.04922649999991 L 206.46195770000003 -76.99999999999997 " stroke="#000000" stroke-width="0.35 px" style="stroke-width:0.35;stroke-miterlimit:4;stroke-dasharray:none;fill:none;fill-rule: evenodd "/>
<path id="Line254_w0000"  d="M 224.51195770000004 -59.04922649999991 L 224.51195770000004 -76.99999999999997 " stroke="#000000" stroke-width="0.35 px" style="stroke-width:0.35;stroke-miterlimit:4;stroke-dasharray:none;fill:none;fill-rule: evenodd "/>
<path id="Line276_w0000"  d="M 257.0 7.9999999999999964 L 257.0 -86.00000000000004 " stroke="#000000" stroke-width="0.35 px" style="stroke-width:0.35;stroke-miterlimit:4;stroke-dasharray:none;fill:none;fill-rule: evenodd "/>
<path id="Line278_w0000"  d="M 255.0 -88.0 L -5.0 -88.0 " stroke="#000000" stroke-width="0.35 px" style="stroke-width:0.35;stroke-miterlimit:4;stroke-dasharray:none;fill:none;fill-rule: evenodd "/>
<path id="Line280_w0000"  d="M -7.0 -86.0 L -7.0 8.0 " stroke="#000000" stroke-width="0.35 px" style="stroke-width:0.35;stroke-miterlimit:4;stroke-dasharray:none;fill:none;fill-rule: evenodd "/>
<path id="Arc053_nwe0000"  d="M -5.0 10.0 A 2 2 0 0 1 -7 8" stroke="#000000" stroke-width="0.35 px" style="stroke-width:0.35;stroke-miterlimit:4;stroke-dasharray:none;fill:none;fill-rule: evenodd "/>
<path id="Arc052_nwe0000"  d="M -7.000000000000005 -86.0 A 2 2 0 0 1 -5 -88" stroke="#000000" stroke-width="0.35 px" style="stroke-width:0.35;stroke-miterlimit:4;stroke-dasharray:none;fill:none;fill-rule: evenodd "/>
<path id="Arc054_nwe0000"  d="M 255.0 -87.99999999999999 A 2 2 0 0 1 257 -86" stroke="#000000" stroke-width="0.35 px" style="stroke-width:0.35;stroke-miterlimit:4;stroke-dasharray:none;fill:none;fill-rule: evenodd "/>
<path id="Arc055_nwe0000"  d="M 257.0 8.000000000000028 A 2 2 0 0 1 255 10" stroke="#000000" stroke-width="0.35 px" style="stroke-width:0.35;stroke-miterlimit:4;stroke-dasharray:none;fill:none;fill-rule: evenodd "/>
<circle cx="105.375" cy="5.500000000000016" r="1.85" stroke="#000000" stroke-width="0.35 px" style="stroke-width:0.35;stroke-miterlimit:4;stroke-dasharray:none;fill:none"/>
<circle cx="144.625" cy="5.500000000000022" r="1.85" stroke="#000000" stroke-width="0.35 px" style="stroke-width:0.35;stroke-miterlimit:4;stroke-dasharray:none;fill:none"/>
<circle cx="124.99969135" cy="-83.49999999999996" r="1.85" stroke="#000000" stroke-width="0.35 px" style="stroke-width:0.35;stroke-miterlimit:4;stroke-dasharray:none;fill:none"/>
<circle cx="-2.499999999999999" cy="5.5" r="1.85" stroke="#000000" stroke-width="0.35 px" style="stroke-width:0.35;stroke-miterlimit:4;stroke-dasharray:none;fill:none"/>
<circle cx="-2.50000000000001" cy="-83.5" r="1.85" stroke="#000000" stroke-width="0.35 px" style="stroke-width:0.35;stroke-miterlimit:4;stroke-dasharray:none;fill:none"/>
<circle cx="252.5" cy="5.500000000000032" r="1.85" stroke="#000000" stroke-width="0.35 px" style="stroke-width:0.35;stroke-miterlimit:4;stroke-dasharray:none;fill:none"/>
<circle cx="252.5" cy="-83.49999999999999" r="1.85" stroke="#000000" stroke-width="0.35 px" style="stroke-width:0.35;stroke-miterlimit:4;stroke-dasharray:none;fill:none"/>
<path id="Line281_w0000"  d="M -4.999999999999999 10.0 L 255.0 10.000000000000009 " stroke="#000000" stroke-width="0.35 px" style="stroke-width:0.35;stroke-miterlimit:4;stroke-dasharray:none;fill:none;fill-rule: evenodd "/>
<title>b'Mid'</title>
</g>
<g id="Line084" transform="translate(9.640000,12.640000) scale(1,-1)">
<path id="Line084_w0000"  d="M 1.5 0.0 L 248.5 0.0 " stroke="#000000" stroke-width="0.35 px" style="stroke-width:0.35;stroke-miterlimit:4;stroke-dasharray:none;fill:none;fill-rule: evenodd "/>
<title>b'Line084'</title>
</g>
<g id="Line085" transform="translate(9.640000,12.640000) scale(1,-1)">
<path id="Line085_w0000"  d="M 0.5 -1.0 L 0.5 -77.0 " stroke="#000000" stroke-width="0.35 px" style="stroke-width:0.35;stroke-miterlimit:4;stroke-dasharray:none;fill:none;fill-rule: evenodd "/>
<title>b'Line085'</title>
</g>
<g id="Line087" transform="translate(9.640000,12.640000) scale(1,-1)">
<path id="Line087_w0000"  d="M 249.5 -77.0 L 249.5 -1.0 " stroke="#000000" stroke-width="0.35 px" style="stroke-width:0.35;stroke-miterlimit:4;stroke-dasharray:none;fill:none;fill-rule: evenodd "/>
<title>b'Line087'</title>
</g>
<g id="Arc040" transform="translate(9.640000,12.640000) scale(1,-1)">
<path id="Arc040_nwe0000"  d="M 1.500000000000001 0.0 A 1 1 0 0 1 0.5 -1" stroke="#000000" stroke-width="0.35 px" style="stroke-width:0.35;stroke-miterlimit:4;stroke-dasharray:none;fill:none;fill-rule: evenodd "/>
<title>b'Arc040'</title>
</g>
<g id="Arc041" transform="translate(9.640000,12.640000) scale(1,-1)">
<path id="Arc041_nwe0000"  d="M 0.5 -77.0 A 1 1 0 0 1 1.5 -78" stroke="#000000" stroke-width="0.35 px" style="stroke-width:0.35;stroke-miterlimit:4;stroke-dasharray:none;fill:none;fill-rule: evenodd "/>
<title>b'Arc041'</title>
</g>
<g id="Arc042" transform="translate(9.640000,12.640000) scale(1,-1)">
<path id="Arc042_nwe0000"  d="M 248.5 -77.99999999999999 A 1 1 0 0 1 249.5 -77" stroke="#000000" stroke-width="0.35 px" style="stroke-width:0.35;stroke-miterlimit:4;stroke-dasharray:none;fill:none;fill-rule: evenodd "/>
<title>b'Arc042'</title>
</g>
<g id="Arc043" transform="translate(9.640000,12.640000) scale(1,-1)">
<path id="Arc043_nwe0000"  d="M 249.49999982118607 -0.999999999999942 A 1 1 0 0 1 248.5 6.01741e-14" stroke="#000000" stroke-width="0.35 px" style="stroke-width:0.35;stroke-miterlimit:4;stroke-dasharray:none;fill:none;fill-rule: evenodd "/>
<title>b'Arc043'</title>
</g>
<g id="Arc044" transform="translate(9.640000,12.640000) scale(1,-1)">
<path id="Arc044_nwe0000"  d="M 43.53680769999996 -77.0 A 1 1 0 0 1 44.5368 -78" stroke="#000000" stroke-width="0.35 px" style="stroke-width:0.35;stroke-miterlimit:4;stroke-dasharray:none;fill:none;fill-rule: evenodd "/>
<title>b'Arc044'</title>
</g>
<g id="Arc045" transform="translate(9.640000,12.640000) scale(1,-1)">
<path id="Arc045_nwe0000"  d="M 24.486807699999957 -78.0 A 1 1 0 0 1 25.4868 -77" stroke="#000000" stroke-width="0.35 px" style="stroke-width:0.35;stroke-miterlimit:4;stroke-dasharray:none;fill:none;fill-rule: evenodd "/>
<title>b'Arc045'</title>
</g>
<g id="Arc046" transform="translate(9.640000,12.640000) scale(1,-1)">
<path id="Arc046_nwe0000"  d="M 205.46195770000003 -77.99999999999999 A 1 1 0 0 1 206.462 -77" stroke="#000000" stroke-width="0.35 px" style="stroke-width:0.35;stroke-miterlimit:4;stroke-dasharray:none;fill:none;fill-rule: evenodd "/>
<title>b'Arc046'</title>
</g>
<g id="Arc047" transform="translate(9.640000,12.640000) scale(1,-1)">
<path id="Arc047_nwe0000"  d="M 224.51195770000004 -76.99999999999999 A 1 1 0 0 1 225.512 -78" stroke="#000000" stroke-width="0.35 px" style="stroke-width:0.35;stroke-miterlimit:4;stroke-dasharray:none;fill:none;fill-rule: evenodd "/>
<title>b'Arc047'</title>
</g>
<g id="Line246" transform="translate(9.640000,12.640000) scale(1,-1)">
<path id="Line246_w0000"  d="M 25.48680769999995 -59.04922649999995 L 43.53680769999994 -59.049226499999946 " stroke="#000000" stroke-width="0.35 px" style="stroke-width:0.35;stroke-miterlimit:4;stroke-dasharray:none;fill:none;fill-rule: evenodd "/>
<title>b'Line246'</title>
</g>
<g id="Line247" transform="translate(9.640000,12.640000) scale(1,-1)">
<path id="Line247_w0000"  d="M 206.46195770000003 -59.049226499999925 L 224.51195770000004 -59.049226499999925 " stroke="#000000" stroke-width="0.35 px" style="stroke-width:0.35;stroke-miterlimit:4;stroke-dasharray:none;fill:none;fill-rule: evenodd "/>
<title>b'Line247'</title>
</g>
<g id="Line248" transform="translate(9.640000,12.640000) scale(1,-1)">
<path id="Line248_w0000"  d="M 1.499999999999997 -78.0 L 24.486807699999954 -78.0 " stroke="#000000" stroke-width="0.35 px" style="stroke-width:0.35;stroke-miterlimit:4;stroke-dasharray:none;fill:none;fill-rule: evenodd "/>
<title>b'Line248'</title>
</g>
<g id="Line249" transform="translate(9.640000,12.640000) scale(1,-1)">
<path id="Line249_w0000"  d="M 44.536807699999954 -78.0 L 205.46195770000003 -77.99999999999997 " stroke="#000000" stroke-width="0.35 px" style="stroke-width:0.35;stroke-miterlimit:4;stroke-dasharray:none;fill:none;fill-rule: evenodd "/>
<title>b'Line249'</title>
</g>
<g id="Line250" transform="translate(9.640000,12.640000) scale(1,-1)">
<path id="Line250_w0000"  d="M 225.51195770000004 -77.99999999999997 L 248.5 -78.00000000000004 " stroke="#000000" stroke-width="0.35 px" style="stroke-width:0.35;stroke-miterlimit:4;stroke-dasharray:none;fill:none;fill-rule: evenodd "/>
<title>b'Line250'</title>
</g>
<g id="Line251" transform="translate(9.640000,12.640000) scale(1,-1)">
<path id="Line251_w0000"  d="M 25.486807699999947 -59.04922649999995 L 25.486807699999947 -77.0 " stroke="#000000" stroke-width="0.35 px" style="stroke-width:0.35;stroke-miterlimit:4;stroke-dasharray:none;fill:none;fill-rule: evenodd "/>
<title>b'Line251'</title>
</g>
<g id="Line252" transform="translate(9.640000,12.640000) scale(1,-1)">
<path id="Line252_w0000"  d="M 43.53680769999993 -59.049226499999946 L 43.53680769999993 -77.0 " stroke="#000000" stroke-width="0.35 px" style="stroke-width:0.35;stroke-miterlimit:4;stroke-dasharray:none;fill:none;fill-rule: evenodd "/>
<title>b'Line252'</title>
</g>
<g id="Line253" transform="translate(9.640000,12.640000) scale(1,-1)">
<path id="Line253_w0000"  d="M 206.46195770000003 -59.04922649999991 L 206.46195770000003 -76.99999999999997 " stroke="#000000" stroke-width="0.35 px" style="stroke-width:0.35;stroke-miterlimit:4;stroke-dasharray:none;fill:none;fill-rule: evenodd "/>
<title>b'Line253'</title>
</g>
<g id="Line254" transform="translate(9.640000,12.640000) scale(1,-1)">
<path id="Line254_w0000"  d="M 224.51195770000004 -59.04922649999991 L 224.51195770000004 -76.99999999999997 " stroke="#000000" stroke-width="0.35 px" style="stroke-width:0.35;stroke-miterlimit:4;stroke-dasharray:none;fill:none;fill-rule: evenodd "/>
<title>b'Line254'</title>
</g>
<g id="Line276" transform="translate(9.640000,12.640000) scale(1,-1)">
<path id="Line276_w0000"  d="M 257.0 7.9999999999999964 L 257.0 -86.00000000000004 " stroke="#000000" stroke-width="0.35 px" style="stroke-width:0.35;stroke-miterlimit:4;stroke-dasharray:none;fill:none;fill-rule: evenodd "/>
<title>b'Line276'</title>
</g>
<g id="Line278" transform="translate(9.640000,12.640000) scale(1,-1)">
<path id="Line278_w0000"  d="M 255.0 -88.0 L -5.0 -88.0 " stroke="#000000" stroke-width="0.35 px" style="stroke-width:0.35;stroke-miterlimit:4;stroke-dasharray:none;fill:none;fill-rule: evenodd "/>
<title>b'Line278'</title>
</g>
<g id="Line280" transform="translate(9.640000,12.640000) scale(1,-1)">
<path id="Line280_w0000"  d="M -7.0 -86.0 L -7.0 8.0 " stroke="#000000" stroke-width="0.35 px" style="stroke-width:0.35;stroke-miterlimit:4;stroke-dasharray:none;fill:none;fill-rule: evenodd "/>
<title>b'Line280'</title>
</g>
<g id="Arc053" transform="translate(9.640000,12.640000) scale(1,-1)">
<path id="Arc053_nwe0000"  d="M -5.0 10.0 A 2 2 0 0 1 -7 8" stroke="#000000" stroke-width="0.35 px" style="stroke-width:0.35;stroke-miterlimit:4;stroke-dasharray:none;fill:none;fill-rule: evenodd "/>
<title>b'Arc053'</title>
</g>
<g id="Arc052" transform="translate(9.640000,12.640000) scale(1,-1)">
<path id="Arc052_nwe0000"  d="M -7.000000000000005 -86.0 A 2 2 0 0 1 -5 -88" stroke="#000000" stroke-width="0.35 px" style="stroke-width:0.35;stroke-miterlimit:4;stroke-dasharray:none;fill:none;fill-rule: evenodd "/>
<title>b'Arc052'</title>
</g>
<g id="Arc054" transform="translate(9.640000,12.640000) scale(1,-1)">
<path id="Arc054_nwe0000"  d="M 255.0 -87.99999999999999 A 2 2 0 0 1 257 -86" stroke="#000000" stroke-width="0.35 px" style="stroke-width:0.35;stroke-miterlimit:4;stroke-dasharray:none;fill:none;fill-rule: evenodd "/>
<title>b'Arc054'</title>
</g>
<g id="Arc055" transform="translate(9.640000,12.640000) scale(1,-1)">
<path id="Arc055_nwe0000"  d="M 257.0 8.000000000000028 A 2 2 0 0 1 255 10" stroke="#000000" stroke-width="0.35 px" style="stroke-width:0.35;stroke-miterlimit:4;stroke-dasharray:none;fill:none;fill-rule: evenodd "/>
<title>b'Arc055'</title>
</g>
<g id="Circle012" transform="translate(9.640000,12.640000) scale(1,-1)">
<circle cx="105.375" cy="5.500000000000016" r="1.85" stroke="#000000" stroke-width="0.35 px" style="stroke-width:0.35;stroke-miterlimit:4;stroke-dasharray:none;fill:none"/>
<title>b'Circle012'</title>
</g>
<g id="Circle013" transform="translate(9.640000,12.640000) scale(1,-1)">
<circle cx="144.625" cy="5.500000000000022" r="1.85" stroke="#000000" stroke-width="0.35 px" style="stroke-width:0.35;stroke-miterlimit:4;stroke-dasharray:none;fill:none"/>
<title>b'Circle013'</title>
</g>
<g id="Circle010" transform="translate(9.640000,12.640000) scale(1,-1)">
<circle cx="124.99969135" cy="-83.49999999999996" r="1.85" stroke="#000000" stroke-width="0.35 px" style="stroke-width:0.35;stroke-miterlimit:4;stroke-dasharray:none;fill:none"/>
<title>b'Circle010'</title>
</g>
<g id="Circle014" transform="translate(9.640000,12.640000) scale(1,-1)">
<circle cx="-2.499999999999999" cy="5.5" r="1.85" stroke="#000000" stroke-width="0.35 px" style="stroke-width:0.35;stroke-miterlimit:4;stroke-dasharray:none;fill:none"/>
<title>b'Circle014'</title>
</g>
<g id="Circle015" transform="translate(9.640000,12.640000) scale(1,-1)">
<circle cx="-2.50000000000001" cy="-83.5" r="1.85" stroke="#000000" stroke-width="0.35 px" style="stroke-width:0.35;stroke-miterlimit:4;stroke-dasharray:none;fill:none"/>
<title>b'Circle015'</title>
</g>
<g id="Circle009" transform="translate(9.640000,12.640000) scale(1,-1)">
<circle cx="252.5" cy="5.500000000000032" r="1.85" stroke="#000000" stroke-width="0.35 px" style="stroke-width:0.35;stroke-miterlimit:4;stroke-dasharray:none;fill:none"/>
<title>b'Circle009'</title>
</g>
<g id="Circle016" transform="translate(9.640000,12.640000) scale(1,-1)">
<circle cx="252.5" cy="-83.49999999999999" r="1.85" stroke="#000000" stroke-width="0.35 px" style="stroke-width:0.35;stroke-miterlimit:4;stroke-dasharray:none;fill:none"/>
<title>b'Circle016'</title>
</g>
<g id="Line281" transform="translate(9.640000,12.640000) scale(1,-1)">
<path id="Line281_w0000"  d="M -4.999999999999999 10.0 L 255.0 10.000000000000009 " stroke="#000000" stroke-width="0.35 px" style="stroke-width:0.35;stroke-miterlimit:4;stroke-dasharray:none;fill:none;fill-rule: evenodd "/>
<title>b'Line281'</title>
</g>
</svg>