<?xml version="1.0"?>
<!DOCTYPE svg PUBLIC "-//W3C//DTD SVG 1.1//EN" "http://www.w3.org/Graphics/SVG/1.1/DTD/svg11.dtd">
<svg width="269.28mm" height="103.28000000000003mm" viewBox="0 0 269.28 103.28000000000003" xmlns="http://www.w3.org/2000/svg" version="1.1">
<g id="Group012" transform="translate(9.640000,12.640000) scale(1,-1)">
<path id="Arc039_nwe0000"  d="M 249.99999982118607 -78.99999999999997 A 1 1 0 0 1 251 -78" stroke="#000000" stroke-width="0.35 px" style="stroke-width:0.35;stroke-miterlimit:4;stroke-dasharray:none;fill:none;fill-rule: evenodd "/>
<path id="Arc038_nwe0000"  d="M 250.99999982118607 2.8e-14 A 1 1 0 0 1 250 1" stroke="#000000" stroke-width="0.35 px" style="stroke-width:0.35;stroke-miterlimit:4;stroke-dasharray:none;fill:none;fill-rule: evenodd "/>
<path id="Arc018_nwe0000"  d="M 0.0 1.0 A 1 1 0 0 1 -1 1.22465e-16" stroke="#000000" stroke-width="0.35 px" style="stroke-width:0.35;stroke-miterlimit:4;stroke-dasharray:none;fill:none;fill-rule: evenodd "/>
<path id="Arc021_nwe0000"  d="M -1.000000000000002 -78.0 A 1 1 0 0 1 -1.83697e-16 -79" stroke="#000000" stroke-width="0.35 px" style="stroke-width:0.35;stroke-miterlimit:4;stroke-dasharray:none;fill:none;fill-rule: evenodd "/>
<path id="Line082_w0000"  d="M 230.25 -79.0 L 250.0 -79.00000000000001 " stroke="#000000" stroke-width="0.35 px" style="stroke-width:0.35;stroke-miterlimit:4;stroke-dasharray:none;fill:none;fill-rule: evenodd "/>
<path id="Arc034_nwe0000"  d="M 228.25 -83.99999999999994 A 1 1 0 0 1 229.25 -83" stroke="#000000" stroke-width="0.35 px" style="stroke-width:0.35;stroke-miterlimit:4;stroke-dasharray:none;fill:none;fill-rule: evenodd "/>
<path id="Arc035_nwe0000"  d="M 221.25 -82.99999999999994 A 1 1 0 0 1 222.25 -84" stroke="#000000" stroke-width="0.35 px" style="stroke-width:0.35;stroke-miterlimit:4;stroke-dasharray:none;fill:none;fill-rule: evenodd "/>
<path id="Arc037_nwe0000"  d="M 230.25 -78.99999999999994 A 1 1 0 0 1 229.25 -80" stroke="#000000" stroke-width="0.35 px" style="stroke-width:0.35;stroke-miterlimit:4;stroke-dasharray:none;fill:none;fill-rule: evenodd "/>
<path id="Arc036_nwe0000"  d="M 221.25 -79.99999999999994 A 1 1 0 0 1 220.25 -79" stroke="#000000" stroke-width="0.35 px" style="stroke-width:0.35;stroke-miterlimit:4;stroke-dasharray:none;fill:none;fill-rule: evenodd "/>
<path id="Line208_w0000"  d="M 221.25 -79.99999999999993 L 221.25 -82.99999999999993 " stroke="#000000" stroke-width="0.35 px" style="stroke-width:0.35;stroke-miterlimit:4;stroke-dasharray:none;fill:none;fill-rule: evenodd "/>
<path id="Line209_w0000"  d="M 222.25 -84.0 L 228.25 -84.0 " stroke="#000000" stroke-width="0.35 px" style="stroke-width:0.35;stroke-miterlimit:4;stroke-dasharray:none;fill:none;fill-rule: evenodd "/>
<path id="Line211_w0000"  d="M 229.25 -82.99999999999993 L 229.25 -79.99999999999993 " stroke="#000000" stroke-width="0.35 px" style="stroke-width:0.35;stroke-miterlimit:4;stroke-dasharray:none;fill:none;fill-rule: evenodd "/>
<path id="Line078_w0000"  d="M 173.0 -79.0 L 220.25 -79.0 " stroke="#000000" stroke-width="0.35 px" style="stroke-width:0.35;stroke-miterlimit:4;stroke-dasharray:none;fill:none;fill-rule: evenodd "/>
<path id="Arc031_nwe0000"  d="M 171.0 -83.99999999999999 A 1 1 0 0 1 172 -83" stroke="#000000" stroke-width="0.35 px" style="stroke-width:0.35;stroke-miterlimit:4;stroke-dasharray:none;fill:none;fill-rule: evenodd "/>
<path id="Arc032_nwe0000"  d="M 164.0 -82.99999999999999 A 1 1 0 0 1 165 -84" stroke="#000000" stroke-width="0.35 px" style="stroke-width:0.35;stroke-miterlimit:4;stroke-dasharray:none;fill:none;fill-rule: evenodd "/>
<path id="Arc033_nwe0000"  d="M 173.0 -78.99999999999999 A 1 1 0 0 1 172 -80" stroke="#000000" stroke-width="0.35 px" style="stroke-width:0.35;stroke-miterlimit:4;stroke-dasharray:none;fill:none;fill-rule: evenodd "/>
<path id="Arc030_nwe0000"  d="M 164.0 -79.99999999999999 A 1 1 0 0 1 163 -79" stroke="#000000" stroke-width="0.35 px" style="stroke-width:0.35;stroke-miterlimit:4;stroke-dasharray:none;fill:none;fill-rule: evenodd "/>
<path id="Line075_w0000"  d="M 172.0 -82.99999999999999 L 172.0 -79.99999999999999 " stroke="#000000" stroke-width="0.35 px" style="stroke-width:0.35;stroke-miterlimit:4;stroke-dasharray:none;fill:none;fill-rule: evenodd "/>
<path id="Line076_w0000"  d="M 171.0 -84.0 L 165.0 -84.0 " stroke="#000000" stroke-width="0.35 px" style="stroke-width:0.35;stroke-miterlimit:4;stroke-dasharray:none;fill:none;fill-rule: evenodd "/>
<path id="Line223_w0000"  d="M 164.0 -79.99999999999997 L 164.0 -82.99999999999997 " stroke="#000000" stroke-width="0.35 px" style="stroke-width:0.35;stroke-miterlimit:4;stroke-dasharray:none;fill:none;fill-rule: evenodd "/>
<path id="Arc029_nwe0000"  d="M 85.0 -84.0 A 1 1 0 0 1 86 -83" stroke="#000000" stroke-width="0.35 px" style="stroke-width:0.35;stroke-miterlimit:4;stroke-dasharray:none;fill:none;fill-rule: evenodd "/>
<path id="Arc026_nwe0000"  d="M 78.0 -83.0 A 1 1 0 0 1 79 -84" stroke="#000000" stroke-width="0.35 px" style="stroke-width:0.35;stroke-miterlimit:4;stroke-dasharray:none;fill:none;fill-rule: evenodd "/>
<path id="Arc027_nwe0000"  d="M 87.0 -79.0 A 1 1 0 0 1 86 -80" stroke="#000000" stroke-width="0.35 px" style="stroke-width:0.35;stroke-miterlimit:4;stroke-dasharray:none;fill:none;fill-rule: evenodd "/>
<path id="Arc028_nwe0000"  d="M 78.0 -80.0 A 1 1 0 0 1 77 -79" stroke="#000000" stroke-width="0.35 px" style="stroke-width:0.35;stroke-miterlimit:4;stroke-dasharray:none;fill:none;fill-rule: evenodd "/>
<path id="Line073_w0000"  d="M 86.0 -83.0 L 86.0 -80.0 " stroke="#000000" stroke-width="0.35 px" style="stroke-width:0.35;stroke-miterlimit:4;stroke-dasharray:none;fill:none;fill-rule: evenodd "/>
<path id="Line072_w0000"  d="M 78.0 -83.0 L 78.0 -80.0 " stroke="#000000" stroke-width="0.35 px" style="stroke-width:0.35;stroke-miterlimit:4;stroke-dasharray:none;fill:none;fill-rule: evenodd "/>
<path id="Line210_w0000"  d="M 79.0 -84.0 L 85.0 -84.0 " stroke="#000000" stroke-width="0.35 px" style="stroke-width:0.35;stroke-miterlimit:4;stroke-dasharray:none;fill:none;fill-rule: evenodd "/>
<path id="Arc025_nwe0000"  d="M 27.75 -84.0 A 1 1 0 0 1 28.75 -83" stroke="#000000" stroke-width="0.35 px" style="stroke-width:0.35;stroke-miterlimit:4;stroke-dasharray:none;fill:none;fill-rule: evenodd "/>
<path id="Arc024_nwe0000"  d="M 20.75 -83.0 A 1 1 0 0 1 21.75 -84" stroke="#000000" stroke-width="0.35 px" style="stroke-width:0.35;stroke-miterlimit:4;stroke-dasharray:none;fill:none;fill-rule: evenodd "/>
<path id="Arc022_nwe0000"  d="M 29.75 -79.0 A 1 1 0 0 1 28.75 -80" stroke="#000000" stroke-width="0.35 px" style="stroke-width:0.35;stroke-miterlimit:4;stroke-dasharray:none;fill:none;fill-rule: evenodd "/>
<path id="Arc023_nwe0000"  d="M 20.75 -80.0 A 1 1 0 0 1 19.75 -79" stroke="#000000" stroke-width="0.35 px" style="stroke-width:0.35;stroke-miterlimit:4;stroke-dasharray:none;fill:none;fill-rule: evenodd "/>
<path id="Line070_w0000"  d="M 28.75 -83.0 L 28.749999999999996 -80.0 " stroke="#000000" stroke-width="0.35 px" style="stroke-width:0.35;stroke-miterlimit:4;stroke-dasharray:none;fill:none;fill-rule: evenodd "/>
<path id="Line071_w0000"  d="M 27.75 -84.0 L 21.75 -84.0 " stroke="#000000" stroke-width="0.35 px" style="stroke-width:0.35;stroke-miterlimit:4;stroke-dasharray:none;fill:none;fill-rule: evenodd "/>
<path id="Line069_w0000"  d="M 20.75 -83.0 L 20.749999999999996 -80.0 " stroke="#000000" stroke-width="0.35 px" style="stroke-width:0.35;stroke-miterlimit:4;stroke-dasharray:none;fill:none;fill-rule: evenodd "/>
<path id="Arc012_nwe0000"  d="M 217.5 6.000000000000004 A 1 1 0 0 1 216.5 5" stroke="#000000" stroke-width="0.35 px" style="stroke-width:0.35;stroke-miterlimit:4;stroke-dasharray:none;fill:none;fill-rule: evenodd "/>
<path id="Arc015_nwe0000"  d="M 224.5 5.000000000000004 A 1 1 0 0 1 223.5 6" stroke="#000000" stroke-width="0.35 px" style="stroke-width:0.35;stroke-miterlimit:4;stroke-dasharray:none;fill:none;fill-rule: evenodd "/>
<path id="Arc013_nwe0000"  d="M 215.5 1.000000000000004 A 1 1 0 0 1 216.5 2" stroke="#000000" stroke-width="0.35 px" style="stroke-width:0.35;stroke-miterlimit:4;stroke-dasharray:none;fill:none;fill-rule: evenodd "/>
<path id="Arc014_nwe0000"  d="M 224.5 2.000000000000004 A 1 1 0 0 1 225.5 1" stroke="#000000" stroke-width="0.35 px" style="stroke-width:0.35;stroke-miterlimit:4;stroke-dasharray:none;fill:none;fill-rule: evenodd "/>
<path id="Line063_w0000"  d="M 216.5 5.000000000000006 L 216.5 2.000000000000006 " stroke="#000000" stroke-width="0.35 px" style="stroke-width:0.35;stroke-miterlimit:4;stroke-dasharray:none;fill:none;fill-rule: evenodd "/>
<path id="Line064_w0000"  d="M 217.5 6.0 L 223.5 6.0 " stroke="#000000" stroke-width="0.35 px" style="stroke-width:0.35;stroke-miterlimit:4;stroke-dasharray:none;fill:none;fill-rule: evenodd "/>
<path id="Line065_w0000"  d="M 224.5 5.000000000000006 L 224.5 2.000000000000006 " stroke="#000000" stroke-width="0.35 px" style="stroke-width:0.35;stroke-miterlimit:4;stroke-dasharray:none;fill:none;fill-rule: evenodd "/>
<path id="Arc011_nwe0000"  d="M 160.25 6.000000000000003 A 1 1 0 0 1 159.25 5" stroke="#000000" stroke-width="0.35 px" style="stroke-width:0.35;stroke-miterlimit:4;stroke-dasharray:none;fill:none;fill-rule: evenodd "/>
<path id="Arc010_nwe0000"  d="M 167.25 5.000000000000003 A 1 1 0 0 1 166.25 6" stroke="#000000" stroke-width="0.35 px" style="stroke-width:0.35;stroke-miterlimit:4;stroke-dasharray:none;fill:none;fill-rule: evenodd "/>
<path id="Arc008_nwe0000"  d="M 158.25 1.000000000000004 A 1 1 0 0 1 159.25 2" stroke="#000000" stroke-width="0.35 px" style="stroke-width:0.35;stroke-miterlimit:4;stroke-dasharray:none;fill:none;fill-rule: evenodd "/>
<path id="Arc009_nwe0000"  d="M 167.25 2.000000000000004 A 1 1 0 0 1 168.25 1" stroke="#000000" stroke-width="0.35 px" style="stroke-width:0.35;stroke-miterlimit:4;stroke-dasharray:none;fill:none;fill-rule: evenodd "/>
<path id="Line061_w0000"  d="M 159.25 5.000000000000005 L 159.25 2.0000000000000053 " stroke="#000000" stroke-width="0.35 px" style="stroke-width:0.35;stroke-miterlimit:4;stroke-dasharray:none;fill:none;fill-rule: evenodd "/>
<path id="Line062_w0000"  d="M 160.25 6.0 L 166.25 6.0 " stroke="#000000" stroke-width="0.35 px" style="stroke-width:0.35;stroke-miterlimit:4;stroke-dasharray:none;fill:none;fill-rule: evenodd "/>
<path id="Line060_w0000"  d="M 167.25 5.000000000000005 L 167.25 2.0000000000000053 " stroke="#000000" stroke-width="0.35 px" style="stroke-width:0.35;stroke-miterlimit:4;stroke-dasharray:none;fill:none;fill-rule: evenodd "/>
<path id="Arc007_nwe0000"  d="M 83.75 6.000000000000012 A 1 1 0 0 1 82.75 5" stroke="#000000" stroke-width="0.35 px" style="stroke-width:0.35;stroke-miterlimit:4;stroke-dasharray:none;fill:none;fill-rule: evenodd "/>
<path id="Arc006_nwe0000"  d="M 90.75 5.000000000000012 A 1 1 0 0 1 89.75 6" stroke="#000000" stroke-width="0.35 px" style="stroke-width:0.35;stroke-miterlimit:4;stroke-dasharray:none;fill:none;fill-rule: evenodd "/>
<path id="Arc004_nwe0000"  d="M 81.75 1.000000000000012 A 1 1 0 0 1 82.75 2" stroke="#000000" stroke-width="0.35 px" style="stroke-width:0.35;stroke-miterlimit:4;stroke-dasharray:none;fill:none;fill-rule: evenodd "/>
<path id="Arc005_nwe0000"  d="M 90.75 2.000000000000012 A 1 1 0 0 1 91.75 1" stroke="#000000" stroke-width="0.35 px" style="stroke-width:0.35;stroke-miterlimit:4;stroke-dasharray:none;fill:none;fill-rule: evenodd "/>
<path id="Line057_w0000"  d="M 82.75 5.000000000000014 L 82.75 2.000000000000014 " stroke="#000000" stroke-width="0.35 px" style="stroke-width:0.35;stroke-miterlimit:4;stroke-dasharray:none;fill:none;fill-rule: evenodd "/>
<path id="Line058_w0000"  d="M 83.75 6.0 L 89.75 6.0 " stroke="#000000" stroke-width="0.35 px" style="stroke-width:0.35;stroke-miterlimit:4;stroke-dasharray:none;fill:none;fill-rule: evenodd "/>
<path id="Line056_w0000"  d="M 90.75 5.000000000000014 L 90.75 2.000000000000014 " stroke="#000000" stroke-width="0.35 px" style="stroke-width:0.35;stroke-miterlimit:4;stroke-dasharray:none;fill:none;fill-rule: evenodd "/>
<path id="Arc_nwe0000"  d="M 26.5 6.000000000000002 A 1 1 0 0 1 25.5 5" stroke="#000000" stroke-width="0.35 px" style="stroke-width:0.35;stroke-miterlimit:4;stroke-dasharray:none;fill:none;fill-rule: evenodd "/>
<path id="Arc001_nwe0000"  d="M 33.5 5.000000000000002 A 1 1 0 0 1 32.5 6" stroke="#000000" stroke-width="0.35 px" style="stroke-width:0.35;stroke-miterlimit:4;stroke-dasharray:none;fill:none;fill-rule: evenodd "/>
<path id="Arc002_nwe0000"  d="M 24.5 1.0000000000000022 A 1 1 0 0 1 25.5 2" stroke="#000000" stroke-width="0.35 px" style="stroke-width:0.35;stroke-miterlimit:4;stroke-dasharray:none;fill:none;fill-rule: evenodd "/>
<path id="Arc003_nwe0000"  d="M 33.5 2.000000000000002 A 1 1 0 0 1 34.5 1" stroke="#000000" stroke-width="0.35 px" style="stroke-width:0.35;stroke-miterlimit:4;stroke-dasharray:none;fill:none;fill-rule: evenodd "/>
<path id="Line053_w0000"  d="M 25.5 5.000000000000004 L 25.5 2.0000000000000044 " stroke="#000000" stroke-width="0.35 px" style="stroke-width:0.35;stroke-miterlimit:4;stroke-dasharray:none;fill:none;fill-rule: evenodd "/>
<path id="Line054_w0000"  d="M 26.5 6.0 L 32.5 6.0 " stroke="#000000" stroke-width="0.35 px" style="stroke-width:0.35;stroke-miterlimit:4;stroke-dasharray:none;fill:none;fill-rule: evenodd "/>
<path id="Line055_w0000"  d="M 33.5 5.000000000000004 L 33.5 2.0000000000000044 " stroke="#000000" stroke-width="0.35 px" style="stroke-width:0.35;stroke-miterlimit:4;stroke-dasharray:none;fill:none;fill-rule: evenodd "/>
<path id="Line038_w0000"  d="M 0.0 -79.0 L 19.75 -79.0 " stroke="#000000" stroke-width="0.35 px" style="stroke-width:0.35;stroke-miterlimit:4;stroke-dasharray:none;fill:none;fill-rule: evenodd "/>
<path id="Line030_w0000"  d="M 87.0 -79.0 L 163.0 -79.0 " stroke="#000000" stroke-width="0.35 px" style="stroke-width:0.35;stroke-miterlimit:4;stroke-dasharray:none;fill:none;fill-rule: evenodd "/>
<path id="Line_w0000"  d="M 0.0 1.0 L 24.5 1.000000000000003 " stroke="#000000" stroke-width="0.35 px" style="stroke-width:0.35;stroke-miterlimit:4;stroke-dasharray:none;fill:none;fill-rule: evenodd "/>
<path id="Line212_w0000"  d="M 34.5 1.0 L 81.7 1.0 " stroke="#000000" stroke-width="0.35 px" style="stroke-width:0.35;stroke-miterlimit:4;stroke-dasharray:none;fill:none;fill-rule: evenodd "/>
<path id="Line214_w0000"  d="M 131.0 1.0 L 158.25 1.0 " stroke="#000000" stroke-width="0.35 px" style="stroke-width:0.35;stroke-miterlimit:4;stroke-dasharray:none;fill:none;fill-rule: evenodd "/>
<path id="Line215_w0000"  d="M 168.25 1.0 L 215.5 1.0 " stroke="#000000" stroke-width="0.35 px" style="stroke-width:0.35;stroke-miterlimit:4;stroke-dasharray:none;fill:none;fill-rule: evenodd "/>
<path id="Line216_w0000"  d="M 225.5 1.0 L 250.0 1.0 " stroke="#000000" stroke-width="0.35 px" style="stroke-width:0.35;stroke-miterlimit:4;stroke-dasharray:none;fill:none;fill-rule: evenodd "/>
<path id="Line217_w0000"  d="M 251.0 -78.0 L 250.99999982118607 0.0 " stroke="#000000" stroke-width="0.35 px" style="stroke-width:0.35;stroke-miterlimit:4;stroke-dasharray:none;fill:none;fill-rule: evenodd "/>
<path id="Line218_w0000"  d="M -1.0 -78.0 L -0.9999999999999971 0.0 " stroke="#000000" stroke-width="0.35 px" style="stroke-width:0.35;stroke-miterlimit:4;stroke-dasharray:none;fill:none;fill-rule: evenodd "/>
<path id="Line219_w0000"  d="M 119.0 1.000000000000026 L 119.0 10.0 " stroke="#000000" stroke-width="0.35 px" style="stroke-width:0.35;stroke-miterlimit:4;stroke-dasharray:none;fill:none;fill-rule: evenodd "/>
<path id="Line220_w0000"  d="M 131.0 1.000000000000008 L 131.0 10.0 " stroke="#000000" stroke-width="0.35 px" style="stroke-width:0.35;stroke-miterlimit:4;stroke-dasharray:none;fill:none;fill-rule: evenodd "/>
<path id="Line221_w0000"  d="M 91.75 1.0 L 119.0 1.0 " stroke="#000000" stroke-width="0.35 px" style="stroke-width:0.35;stroke-miterlimit:4;stroke-dasharray:none;fill:none;fill-rule: evenodd "/>
<path id="Line222_w0000"  d="M 29.75 -79.0 L 77.0 -79.0 " stroke="#000000" stroke-width="0.35 px" style="stroke-width:0.35;stroke-miterlimit:4;stroke-dasharray:none;fill:none;fill-rule: evenodd "/>
<path id="Line269_w0000"  d="M 131.0 10.000000000000009 L 255.0 10.0 " stroke="#000000" stroke-width="0.35 px" style="stroke-width:0.35;stroke-miterlimit:4;stroke-dasharray:none;fill:none;fill-rule: evenodd "/>
<path id="Line271_w0000"  d="M 257.0 7.9999999999999964 L 257.0 -86.00000000000004 " stroke="#000000" stroke-width="0.35 px" style="stroke-width:0.35;stroke-miterlimit:4;stroke-dasharray:none;fill:none;fill-rule: evenodd "/>
<path id="Line273_w0000"  d="M 255.0 -88.0 L -5.0 -88.0 " stroke="#000000" stroke-width="0.35 px" style="stroke-width:0.35;stroke-miterlimit:4;stroke-dasharray:none;fill:none;fill-rule: evenodd "/>
<path id="Line274_w0000"  d="M 119.0 10.0 L -5.0 10.0 " stroke="#000000" stroke-width="0.35 px" style="stroke-width:0.35;stroke-miterlimit:4;stroke-dasharray:none;fill:none;fill-rule: evenodd "/>
<path id="Line275_w0000"  d="M -7.0 -86.0 L -7.0 8.0 " stroke="#000000" stroke-width="0.35 px" style="stroke-width:0.35;stroke-miterlimit:4;stroke-dasharray:none;fill:none;fill-rule: evenodd "/>
<path id="Arc048_nwe0000"  d="M -5.0 10.0 A 2 2 0 0 1 -7 8" stroke="#000000" stroke-width="0.35 px" style="stroke-width:0.35;stroke-miterlimit:4;stroke-dasharray:none;fill:none;fill-rule: evenodd "/>
<path id="Arc049_nwe0000"  d="M -7.000000000000005 -86.0 A 2 2 0 0 1 -5 -88" stroke="#000000" stroke-width="0.35 px" style="stroke-width:0.35;stroke-miterlimit:4;stroke-dasharray:none;fill:none;fill-rule: evenodd "/>
<path id="Arc050_nwe0000"  d="M 255.0 -87.99999999999999 A 2 2 0 0 1 257 -86" stroke="#000000" stroke-width="0.35 px" style="stroke-width:0.35;stroke-miterlimit:4;stroke-dasharray:none;fill:none;fill-rule: evenodd "/>
<path id="Arc051_nwe0000"  d="M 257.0 8.000000000000028 A 2 2 0 0 1 255 10" stroke="#000000" stroke-width="0.35 px" style="stroke-width:0.35;stroke-miterlimit:4;stroke-dasharray:none;fill:none;fill-rule: evenodd "/>
<circle cx="105.375" cy="5.500000000000016" r="1.85" stroke="#000000" stroke-width="0.35 px" style="stroke-width:0.35;stroke-miterlimit:4;stroke-dasharray:none;fill:none"/>
<circle cx="144.625" cy="5.500000000000022" r="1.85" stroke="#000000" stroke-width="0.35 px" style="stroke-width:0.35;stroke-miterlimit:4;stroke-dasharray:none;fill:none"/>
<circle cx="124.99969135" cy="-83.49999999999994" r="1.85" stroke="#000000" stroke-width="0.35 px" style="stroke-width:0.35;stroke-miterlimit:4;stroke-dasharray:none;fill:none"/>
<circle cx="-2.499999999999999" cy="5.5" r="1.85" stroke="#000000" stroke-width="0.35 px" style="stroke-width:0.35;stroke-miterlimit:4;stroke-dasharray:none;fill:none"/>
<circle cx="-2.50000000000001" cy="-83.5" r="1.85" stroke="#000000" stroke-width="0.35 px" style="stroke-width:0.35;stroke-miterlimit:4;stroke-dasharray:none;fill:none"/>
<circle cx="252.5" cy="5.500000000000032" r="1.85" stroke="#000000" stroke-width="0.35 px" style="stroke-width:0.35;stroke-miterlimit:4;stroke-dasharray:none;fill:none"/>
<circle cx="252.5" cy="-83.49999999999999" r="1.85" stroke="#000000" stroke-width="0.35 px" style="stroke-width:0.35;stroke-miterlimit:4;stroke-dasharray:none;fill:none"/>
<title>b'Gasket'</title>
</g>
<g id="Arc039" transform="translate(9.640000,12.640000) scale(1,-1)">
<path id="Arc039_nwe0000"  d="M 249.99999982118607 -78.99999999999997 A 1 1 0 0 1 251 -78" stroke="#000000" stroke-width="0.35 px" style="stroke-width:0.35;stroke-miterlimit:4;stroke-dasharray:none;fill:none;fill-rule: evenodd "/>
<title>b'Arc039'</title>
</g>
<g id="Arc038" transform="translate(9.640000,12.640000) scale(1,-1)">
<path id="Arc038_nwe0000"  d="M 250.99999982118607 2.8e-14 A 1 1 0 0 1 250 1" stroke="#000000" stroke-width="0.35 px" style="stroke-width:0.35;stroke-miterlimit:4;stroke-dasharray:none;fill:none;fill-rule: evenodd "/>
<title>b'Arc038'</title>
</g>
<g id="Arc018" transform="translate(9.640000,12.640000) scale(1,-1)">
<path id="Arc018_nwe0000"  d="M 0.0 1.0 A 1 1 0 0 1 -1 1.22465e-16" stroke="#000000" stroke-width="0.35 px" style="stroke-width:0.35;stroke-miterlimit:4;stroke-dasharray:none;fill:none;fill-rule: evenodd "/>
<title>b'Arc018'</title>
</g>
<g id="Arc021" transform="translate(9.640000,12.640000) scale(1,-1)">
<path id="Arc021_nwe0000"  d="M -1.000000000000002 -78.0 A 1 1 0 0 1 -1.83697e-16 -79" stroke="#000000" stroke-width="0.35 px" style="stroke-width:0.35;stroke-miterlimit:4;stroke-dasharray:none;fill:none;fill-rule: evenodd "/>
<title>b'Arc021'</title>
</g>
<g id="Line082" transform="translate(9.640000,12.640000) scale(1,-1)">
<path id="Line082_w0000"  d="M 230.25 -79.0 L 250.0 -79.00000000000001 " stroke="#000000" stroke-width="0.35 px" style="stroke-width:0.35;stroke-miterlimit:4;stroke-dasharray:none;fill:none;fill-rule: evenodd "/>
<title>b'Line082'</title>
</g>
<g id="Arc034" transform="translate(9.640000,12.640000) scale(1,-1)">
<path id="Arc034_nwe0000"  d="M 228.25 -83.99999999999994 A 1 1 0 0 1 229.25 -83" stroke="#000000" stroke-width="0.35 px" style="stroke-width:0.35;stroke-miterlimit:4;stroke-dasharray:none;fill:none;fill-rule: evenodd "/>
<title>b'Arc034'</title>
</g>
<g id="Arc035" transform="translate(9.640000,12.640000) scale(1,-1)">
<path id="Arc035_nwe0000"  d="M 221.25 -82.99999999999994 A 1 1 0 0 1 222.25 -84" stroke="#000000" stroke-width="0.35 px" style="stroke-width:0.35;stroke-miterlimit:4;stroke-dasharray:none;fill:none;fill-rule: evenodd "/>
<title>b'Arc035'</title>
</g>
<g id="Arc037" transform="translate(9.640000,12.640000) scale(1,-1)">
<path id="Arc037_nwe0000"  d="M 230.25 -78.99999999999994 A 1 1 0 0 1 229.25 -80" stroke="#000000" stroke-width="0.35 px" style="stroke-width:0.35;stroke-miterlimit:4;stroke-dasharray:none;fill:none;fill-rule: evenodd "/>
<title>b'Arc037'</title>
</g>
<g id="Arc036" transform="translate(9.640000,12.640000) scale(1,-1)">
<path id="Arc036_nwe0000"  d="M 221.25 -79.99999999999994 A 1 1 0 0 1 220.25 -79" stroke="#000000" stroke-width="0.35 px" style="stroke-width:0.35;stroke-miterlimit:4;stroke-dasharray:none;fill:none;fill-rule: evenodd "/>
<title>b'Arc036'</title>
</g>
<g id="Line208" transform="translate(9.640000,12.640000) scale(1,-1)">
<path id="Line208_w0000"  d="M 221.25 -79.99999999999993 L 221.25 -82.99999999999993 " stroke="#000000" stroke-width="0.35 px" style="stroke-width:0.35;stroke-miterlimit:4;stroke-dasharray:none;fill:none;fill-rule: evenodd "/>
<title>b'Line208'</title>
</g>
<g id="Line209" transform="translate(9.640000,12.640000) scale(1,-1)">
<path id="Line209_w0000"  d="M 222.25 -84.0 L 228.25 -84.0 " stroke="#000000" stroke-width="0.35 px" style="stroke-width:0.35;stroke-miterlimit:4;stroke-dasharray:none;fill:none;fill-rule: evenodd "/>
<title>b'Line209'</title>
</g>
<g id="Line211" transform="translate(9.640000,12.640000) scale(1,-1)">
<path id="Line211_w0000"  d="M 229.25 -82.99999999999993 L 229.25 -79.99999999999993 " stroke="#000000" stroke-width="0.35 px" style="stroke-width:0.35;stroke-miterlimit:4;stroke-dasharray:none;fill:none;fill-rule: evenodd "/>
<title>b'Line211'</title>
</g>
<g id="Line078" transform="translate(9.640000,12.640000) scale(1,-1)">
<path id="Line078_w0000"  d="M 173.0 -79.0 L 220.25 -79.0 " stroke="#000000" stroke-width="0.35 px" style="stroke-width:0.35;stroke-miterlimit:4;stroke-dasharray:none;fill:none;fill-rule: evenodd "/>
<title>b'Line078'</title>
</g>
<g id="Arc031" transform="translate(9.640000,12.640000) scale(1,-1)">
<path id="Arc031_nwe0000"  d="M 171.0 -83.99999999999999 A 1 1 0 0 1 172 -83" stroke="#000000" stroke-width="0.35 px" style="stroke-width:0.35;stroke-miterlimit:4;stroke-dasharray:none;fill:none;fill-rule: evenodd "/>
<title>b'Arc031'</title>
</g>
<g id="Arc032" transform="translate(9.640000,12.640000) scale(1,-1)">
<path id="Arc032_nwe0000"  d="M 164.0 -82.99999999999999 A 1 1 0 0 1 165 -84" stroke="#000000" stroke-width="0.35 px" style="stroke-width:0.35;stroke-miterlimit:4;stroke-dasharray:none;fill:none;fill-rule: evenodd "/>
<title>b'Arc032'</title>
</g>
<g id="Arc033" transform="translate(9.640000,12.640000) scale(1,-1)">
<path id="Arc033_nwe0000"  d="M 173.0 -78.99999999999999 A 1 1 0 0 1 172 -80" stroke="#000000" stroke-width="0.35 px" style="stroke-width:0.35;stroke-miterlimit:4;stroke-dasharray:none;fill:none;fill-rule: evenodd "/>
<title>b'Arc033'</title>
</g>
<g id="Arc030" transform="translate(9.640000,12.640000) scale(1,-1)">
<path id="Arc030_nwe0000"  d="M 164.0 -79.99999999999999 A 1 1 0 0 1 163 -79" stroke="#000000" stroke-width="0.35 px" style="stroke-width:0.35;stroke-miterlimit:4;stroke-dasharray:none;fill:none;fill-rule: evenodd "/>
<title>b'Arc030'</title>
</g>
<g id="Line075" transform="translate(9.640000,12.640000) scale(1,-1)">
<path id="Line075_w0000"  d="M 172.0 -82.99999999999999 L 172.0 -79.99999999999999 " stroke="#000000" stroke-width="0.35 px" style="stroke-width:0.35;stroke-miterlimit:4;stroke-dasharray:none;fill:none;fill-rule: evenodd "/>
<title>b'Line075'</title>
</g>
<g id="Line076" transform="translate(9.640000,12.640000) scale(1,-1)">
<path id="Line076_w0000"  d="M 171.0 -84.0 L 165.0 -84.0 " stroke="#000000" stroke-width="0.35 px" style="stroke-width:0.35;stroke-miterlimit:4;stroke-dasharray:none;fill:none;fill-rule: evenodd "/>
<title>b'Line076'</title>
</g>
<g id="Line223" transform="translate(9.640000,12.640000) scale(1,-1)">
<path id="Line223_w0000"  d="M 164.0 -79.99999999999997 L 164.0 -82.99999999999997 " stroke="#000000" stroke-width="0.35 px" style="stroke-width:0.35;stroke-miterlimit:4;stroke-dasharray:none;fill:none;fill-rule: evenodd "/>
<title>b'Line223'</title>
</g>
<g id="Arc029" transform="translate(9.640000,12.640000) scale(1,-1)">
<path id="Arc029_nwe0000"  d="M 85.0 -84.0 A 1 1 0 0 1 86 -83" stroke="#000000" stroke-width="0.35 px" style="stroke-width:0.35;stroke-miterlimit:4;stroke-dasharray:none;fill:none;fill-rule: evenodd "/>
<title>b'Arc029'</title>
</g>
<g id="Arc026" transform="translate(9.640000,12.640000) scale(1,-1)">
<path id="Arc026_nwe0000"  d="M 78.0 -83.0 A 1 1 0 0 1 79 -84" stroke="#000000" stroke-width="0.35 px" style="stroke-width:0.35;stroke-miterlimit:4;stroke-dasharray:none;fill:none;fill-rule: evenodd "/>
<title>b'Arc026'</title>
</g>
<g id="Arc027" transform="translate(9.640000,12.640000) scale(1,-1)">
<path id="Arc027_nwe0000"  d="M 87.0 -79.0 A 1 1 0 0 1 86 -80" stroke="#000000" stroke-width="0.35 px" style="stroke-width:0.35;stroke-miterlimit:4;stroke-dasharray:none;fill:none;fill-rule: evenodd "/>
<title>b'Arc027'</title>
</g>
<g id="Arc028" transform="translate(9.640000,12.640000) scale(1,-1)">
<path id="Arc028_nwe0000"  d="M 78.0 -80.0 A 1 1 0 0 1 77 -79" stroke="#000000" stroke-width="0.35 px" style="stroke-width:0.35;stroke-miterlimit:4;stroke-dasharray:none;fill:none;fill-rule: evenodd "/>
<title>b'Arc028'</title>
</g>
<g id="Line073" transform="translate(9.640000,12.640000) scale(1,-1)">
<path id="Line073_w0000"  d="M 86.0 -83.0 L 86.0 -80.0 " stroke="#000000" stroke-width="0.35 px" style="stroke-width:0.35;stroke-miterlimit:4;stroke-dasharray:none;fill:none;fill-rule: evenodd "/>
<title>b'Line073'</title>
</g>
<g id="Line072" transform="translate(9.640000,12.640000) scale(1,-1)">
<path id="Line072_w0000"  d="M 78.0 -83.0 L 78.0 -80.0 " stroke="#000000" stroke-width="0.35 px" style="stroke-width:0.35;stroke-miterlimit:4;stroke-dasharray:none;fill:none;fill-rule: evenodd "/>
<title>b'Line072'</title>
</g>
<g id="Line210" transform="translate(9.640000,12.640000) scale(1,-1)">
<path id="Line210_w0000"  d="M 79.0 -84.0 L 85.0 -84.0 " stroke="#000000" stroke-width="0.35 px" style="stroke-width:0.35;stroke-miterlimit:4;stroke-dasharray:none;fill:none;fill-rule: evenodd "/>
<title>b'Line210'</title>
</g>
<g id="Arc025" transform="translate(9.640000,12.640000) scale(1,-1)">
<path id="Arc025_nwe0000"  d="M 27.75 -84.0 A 1 1 0 0 1 28.75 -83" stroke="#000000" stroke-width="0.35 px" style="stroke-width:0.35;stroke-miterlimit:4;stroke-dasharray:none;fill:none;fill-rule: evenodd "/>
<title>b'Arc025'</title>
</g>
<g id="Arc024" transform="translate(9.640000,12.640000) scale(1,-1)">
<path id="Arc024_nwe0000"  d="M 20.75 -83.0 A 1 1 0 0 1 21.75 -84" stroke="#000000" stroke-width="0.35 px" style="stroke-width:0.35;stroke-miterlimit:4;stroke-dasharray:none;fill:none;fill-rule: evenodd "/>
<title>b'Arc024'</title>
</g>
<g id="Arc022" transform="translate(9.640000,12.640000) scale(1,-1)">
<path id="Arc022_nwe0000"  d="M 29.75 -79.0 A 1 1 0 0 1 28.75 -80" stroke="#000000" stroke-width="0.35 px" style="stroke-width:0.35;stroke-miterlimit:4;stroke-dasharray:none;fill:none;fill-rule: evenodd "/>
<title>b'Arc022'</title>
</g>
<g id="Arc023" transform="translate(9.640000,12.640000) scale(1,-1)">
<path id="Arc023_nwe0000"  d="M 20.75 -80.0 A 1 1 0 0 1 19.75 -79" stroke="#000000" stroke-width="0.35 px" style="stroke-width:0.35;stroke-miterlimit:4;stroke-dasharray:none;fill:none;fill-rule: evenodd "/>
<title>b'Arc023'</title>
</g>
<g id="Line070" transform="translate(9.640000,12.640000) scale(1,-1)">
<path id="Line070_w0000"  d="M 28.75 -83.0 L 28.749999999999996 -80.0 " stroke="#000000" stroke-width="0.35 px" style="stroke-width:0.35;stroke-miterlimit:4;stroke-dasharray:none;fill:none;fill-rule: evenodd "/>
<title>b'Line070'</title>
</g>
<g id="Line071" transform="translate(9.640000,12.640000) scale(1,-1)">
<path id="Line071_w0000"  d="M 27.75 -84.0 L 21.75 -84.0 " stroke="#000000" stroke-width="0.35 px" style="stroke-width:0.35;stroke-miterlimit:4;stroke-dasharray:none;fill:none;fill-rule: evenodd "/>
<title>b'Line071'</title>
</g>
<g id="Line069" transform="translate(9.640000,12.640000) scale(1,-1)">
<path id="Line069_w0000"  d="M 20.75 -83.0 L 20.749999999999996 -80.0 " stroke="#000000" stroke-width="0.35 px" style="stroke-width:0.35;stroke-miterlimit:4;stroke-dasharray:none;fill:none;fill-rule: evenodd "/>
<title>b'Line069'</title>
</g>
<g id="Arc012" transform="translate(9.640000,12.640000) scale(1,-1)">
<path id="Arc012_nwe0000"  d="M 217.5 6.000000000000004 A 1 1 0 0 1 216.5 5" stroke="#000000" stroke-width="0.35 px" style="stroke-width:0.35;stroke-miterlimit:4;stroke-dasharray:none;fill:none;fill-rule: evenodd "/>
<title>b'Arc012'</title>
</g>
<g id="Arc015" transform="translate(9.640000,12.640000) scale(1,-1)">
<path id="Arc015_nwe0000"  d="M 224.5 5.000000000000004 A 1 1 0 0 1 223.5 6" stroke="#000000" stroke-width="0.35 px" style="stroke-width:0.35;stroke-miterlimit:4;stroke-dasharray:none;fill:none;fill-rule: evenodd "/>
<title>b'Arc015'</title>
</g>
<g id="Arc013" transform="translate(9.640000,12.640000) scale(1,-1)">
<path id="Arc013_nwe0000"  d="M 215.5 1.000000000000004 A 1 1 0 0 1 216.5 2" stroke="#000000" stroke-width="0.35 px" style="stroke-width:0.35;stroke-miterlimit:4;stroke-dasharray:none;fill:none;fill-rule: evenodd "/>
<title>b'Arc013'</title>
</g>
<g id="Arc014" transform="translate(9.640000,12.640000) scale(1,-1)">
<path id="Arc014_nwe0000"  d="M 224.5 2.000000000000004 A 1 1 0 0 1 225.5 1" stroke="#000000" stroke-width="0.35 px" style="stroke-width:0.35;stroke-miterlimit:4;stroke-dasharray:none;fill:none;fill-rule: evenodd "/>
<title>b'Arc014'</title>
</g>
<g id="Line063" transform="translate(9.640000,12.640000) scale(1,-1)">
<path id="Line063_w0000"  d="M 216.5 5.000000000000006 L 216.5 2.000000000000006 " stroke="#000000" stroke-width="0.35 px" style="stroke-width:0.35;stroke-miterlimit:4;stroke-dasharray:none;fill:none;fill-rule: evenodd "/>
<title>b'Line063'</title>
</g>
<g id="Line064" transform="translate(9.640000,12.640000) scale(1,-1)">
<path id="Line064_w0000"  d="M 217.5 6.0 L 223.5 6.0 " stroke="#000000" stroke-width="0.35 px" style="stroke-width:0.35;stroke-miterlimit:4;stroke-dasharray:none;fill:none;fill-rule: evenodd "/>
<title>b'Line064'</title>
</g>
<g id="Line065" transform="translate(9.640000,12.640000) scale(1,-1)">
<path id="Line065_w0000"  d="M 224.5 5.000000000000006 L 224.5 2.000000000000006 " stroke="#000000" stroke-width="0.35 px" style="stroke-width:0.35;stroke-miterlimit:4;stroke-dasharray:none;fill:none;fill-rule: evenodd "/>
<title>b'Line065'</title>
</g>
<g id="Arc011" transform="translate(9.640000,12.640000) scale(1,-1)">
<path id="Arc011_nwe0000"  d="M 160.25 6.000000000000003 A 1 1 0 0 1 159.25 5" stroke="#000000" stroke-width="0.35 px" style="stroke-width:0.35;stroke-miterlimit:4;stroke-dasharray:none;fill:none;fill-rule: evenodd "/>
<title>b'Arc011'</title>
</g>
<g id="Arc010" transform="translate(9.640000,12.640000) scale(1,-1)">
<path id="Arc010_nwe0000"  d="M 167.25 5.000000000000003 A 1 1 0 0 1 166.25 6" stroke="#000000" stroke-width="0.35 px" style="stroke-width:0.35;stroke-miterlimit:4;stroke-dasharray:none;fill:none;fill-rule: evenodd "/>
<title>b'Arc010'</title>
</g>
<g id="Arc008" transform="translate(9.640000,12.640000) scale(1,-1)">
<path id="Arc008_nwe0000"  d="M 158.25 1.000000000000004 A 1 1 0 0 1 159.25 2" stroke="#000000" stroke-width="0.35 px" style="stroke-width:0.35;stroke-miterlimit:4;stroke-dasharray:none;fill:none;fill-rule: evenodd "/>
<title>b'Arc008'</title>
</g>
<g id="Arc009" transform="translate(9.640000,12.640000) scale(1,-1)">
<path id="Arc009_nwe0000"  d="M 167.25 2.000000000000004 A 1 1 0 0 1 168.25 1" stroke="#000000" stroke-width="0.35 px" style="stroke-width:0.35;stroke-miterlimit:4;stroke-dasharray:none;fill:none;fill-rule: evenodd "/>
<title>b'Arc009'</title>
</g>
<g id="Line061" transform="translate(9.640000,12.640000) scale(1,-1)">
<path id="Line061_w0000"  d="M 159.25 5.000000000000005 L 159.25 2.0000000000000053 " stroke="#000000" stroke-width="0.35 px" style="stroke-width:0.35;stroke-miterlimit:4;stroke-dasharray:none;fill:none;fill-rule: evenodd "/>
<title>b'Line061'</title>
</g>
<g id="Line062" transform="translate(9.640000,12.640000) scale(1,-1)">
<path id="Line062_w0000"  d="M 160.25 6.0 L 166.25 6.0 " stroke="#000000" stroke-width="0.35 px" style="stroke-width:0.35;stroke-miterlimit:4;stroke-dasharray:none;fill:none;fill-rule: evenodd "/>
<title>b'Line062'</title>
</g>
<g id="Line060" transform="translate(9.640000,12.640000) scale(1,-1)">
<path id="Line060_w0000"  d="M 167.25 5.000000000000005 L 167.25 2.0000000000000053 " stroke="#000000" stroke-width="0.35 px" style="stroke-width:0.35;stroke-miterlimit:4;stroke-dasharray:none;fill:none;fill-rule: evenodd "/>
<title>b'Line060'</title>
</g>
<g id="Arc007" transform="translate(9.640000,12.640000) scale(1,-1)">
<path id="Arc007_nwe0000"  d="M 83.75 6.000000000000012 A 1 1 0 0 1 82.75 5" stroke="#000000" stroke-width="0.35 px" style="stroke-width:0.35;stroke-miterlimit:4;stroke-dasharray:none;fill:none;fill-rule: evenodd "/>
<title>b'Arc007'</title>
</g>
<g id="Arc006" transform="translate(9.640000,12.640000) scale(1,-1)">
<path id="Arc006_nwe0000"  d="M 90.75 5.000000000000012 A 1 1 0 0 1 89.75 6" stroke="#000000" stroke-width="0.35 px" style="stroke-width:0.35;stroke-miterlimit:4;stroke-dasharray:none;fill:none;fill-rule: evenodd "/>
<title>b'Arc006'</title>
</g>
<g id="Arc004" transform="translate(9.640000,12.640000) scale(1,-1)">
<path id="Arc004_nwe0000"  d="M 81.75 1.000000000000012 A 1 1 0 0 1 82.75 2" stroke="#000000" stroke-width="0.35 px" style="stroke-width:0.35;stroke-miterlimit:4;stroke-dasharray:none;fill:none;fill-rule: evenodd "/>
<title>b'Arc004'</title>
</g>
<g id="Arc005" transform="translate(9.640000,12.640000) scale(1,-1)">
<path id="Arc005_nwe0000"  d="M 90.75 2.000000000000012 A 1 1 0 0 1 91.75 1" stroke="#000000" stroke-width="0.35 px" style="stroke-width:0.35;stroke-miterlimit:4;stroke-dasharray:none;fill:none;fill-rule: evenodd "/>
<title>b'Arc005'</title>
</g>
<g id="Line057" transform="translate(9.640000,12.640000) scale(1,-1)">
<path id="Line057_w0000"  d="M 82.75 5.000000000000014 L 82.75 2.000000000000014 " stroke="#000000" stroke-width="0.35 px" style="stroke-width:0.35;stroke-miterlimit:4;stroke-dasharray:none;fill:none;fill-rule: evenodd "/>
<title>b'Line057'</title>
</g>
<g id="Line058" transform="translate(9.640000,12.640000) scale(1,-1)">
<path id="Line058_w0000"  d="M 83.75 6.0 L 89.75 6.0 " stroke="#000000" stroke-width="0.35 px" style="stroke-width:0.35;stroke-miterlimit:4;stroke-dasharray:none;fill:none;fill-rule: evenodd "/>
<title>b'Line058'</title>
</g>
<g id="Line056" transform="translate(9.640000,12.640000) scale(1,-1)">
<path id="Line056_w0000"  d="M 90.75 5.000000000000014 L 90.75 2.000000000000014 " stroke="#000000" stroke-width="0.35 px" style="stroke-width:0.35;stroke-miterlimit:4;stroke-dasharray:none;fill:none;fill-rule: evenodd "/>
<title>b'Line056'</title>
</g>
<g id="Arc" transform="translate(9.640000,12.640000) scale(1,-1)">
<path id="Arc_nwe0000"  d="M 26.5 6.000000000000002 A 1 1 0 0 1 25.5 5" stroke="#000000" stroke-width="0.35 px" style="stroke-width:0.35;stroke-miterlimit:4;stroke-dasharray:none;fill:none;fill-rule: evenodd "/>
<title>b'Arc'</title>
</g>
<g id="Arc001" transform="translate(9.640000,12.640000) scale(1,-1)">
<path id="Arc001_nwe0000"  d="M 33.5 5.000000000000002 A 1 1 0 0 1 32.5 6" stroke="#000000" stroke-width="0.35 px" style="stroke-width:0.35;stroke-miterlimit:4;stroke-dasharray:none;fill:none;fill-rule: evenodd "/>
<title>b'Arc001'</title>
</g>
<g id="Arc002" transform="translate(9.640000,12.640000) scale(1,-1)">
<path id="Arc002_nwe0000"  d="M 24.5 1.0000000000000022 A 1 1 0 0 1 25.5 2" stroke="#000000" stroke-width="0.35 px" style="stroke-width:0.35;stroke-miterlimit:4;stroke-dasharray:none;fill:none;fill-rule: evenodd "/>
<title>b'Arc002'</title>
</g>
<g id="Arc003" transform="translate(9.640000,12.640000) scale(1,-1)">
<path id="Arc003_nwe0000"  d="M 33.5 2.000000000000002 A 1 1 0 0 1 34.5 1" stroke="#000000" stroke-width="0.35 px" style="stroke-width:0.35;stroke-miterlimit:4;stroke-dasharray:none;fill:none;fill-rule: evenodd "/>
<title>b'Arc003'</title>
</g>
<g id="Line053" transform="translate(9.640000,12.640000) scale(1,-1)">
<path id="Line053_w0000"  d="M 25.5 5.000000000000004 L 25.5 2.0000000000000044 " stroke="#000000" stroke-width="0.35 px" style="stroke-width:0.35;stroke-miterlimit:4;stroke-dasharray:none;fill:none;fill-rule: evenodd "/>
<title>b'Line053'</title>
</g>
<g id="Line054" transform="translate(9.640000,12.640000) scale(1,-1)">
<path id="Line054_w0000"  d="M 26.5 6.0 L 32.5 6.0 " stroke="#000000" stroke-width="0.35 px" style="stroke-width:0.35;stroke-miterlimit:4;stroke-dasharray:none;fill:none;fill-rule: evenodd "/>
<title>b'Line054'</title>
</g>
<g id="Line055" transform="translate(9.640000,12.640000) scale(1,-1)">
<path id="Line055_w0000"  d="M 33.5 5.000000000000004 L 33.5 2.0000000000000044 " stroke="#000000" stroke-width="0.35 px" style="stroke-width:0.35;stroke-miterlimit:4;stroke-dasharray:none;fill:none;fill-rule: evenodd "/>
<title>b'Line055'</title>
</g>
<g id="Line038" transform="translate(9.640000,12.640000) scale(1,-1)">
<path id="Line038_w0000"  d="M 0.0 -79.0 L 19.75 -79.0 " stroke="#000000" stroke-width="0.35 px" style="stroke-width:0.35;stroke-miterlimit:4;stroke-dasharray:none;fill:none;fill-rule: evenodd "/>
<title>b'Line038'</title>
</g>
<g id="Line030" transform="translate(9.640000,12.640000) scale(1,-1)">
<path id="Line030_w0000"  d="M 87.0 -79.0 L 163.0 -79.0 " stroke="#000000" stroke-width="0.35 px" style="stroke-width:0.35;stroke-miterlimit:4;stroke-dasharray:none;fill:none;fill-rule: evenodd "/>
<title>b'Line030'</title>
</g>
<g id="Line" transform="translate(9.640000,12.640000) scale(1,-1)">
<path id="Line_w0000"  d="M 0.0 1.0 L 24.5 1.000000000000003 " stroke="#000000" stroke-width="0.35 px" style="stroke-width:0.35;stroke-miterlimit:4;stroke-dasharray:none;fill:none;fill-rule: evenodd "/>
<title>b'Line'</title>
</g>
<g id="Line212" transform="translate(9.640000,12.640000) scale(1,-1)">
<path id="Line212_w0000"  d="M 34.5 1.0 L 81.7 1.0 " stroke="#000000" stroke-width="0.35 px" style="stroke-width:0.35;stroke-miterlimit:4;stroke-dasharray:none;fill:none;fill-rule: evenodd "/>
<title>b'Line212'</title>
</g>
<g id="Line214" transform="translate(9.640000,12.640000) scale(1,-1)">
<path id="Line214_w0000"  d="M 131.0 1.0 L 158.25 1.0 " stroke="#000000" stroke-width="0.35 px" style="stroke-width:0.35;stroke-miterlimit:4;stroke-dasharray:none;fill:none;fill-rule: evenodd "/>
<title>b'Line214'</title>
</g>
<g id="Line215" transform="translate(9.640000,12.640000) scale(1,-1)">
<path id="Line215_w0000"  d="M 168.25 1.0 L 215.5 1.0 " stroke="#000000" stroke-width="0.35 px" style="stroke-width:0.35;stroke-miterlimit:4;stroke-dasharray:none;fill:none;fill-rule: evenodd "/>
<title>b'Line215'</title>
</g>
<g id="Line216" transform="translate(9.640000,12.640000) scale(1,-1)">
<path id="Line216_w0000"  d="M 225.5 1.0 L 250.0 1.0 " stroke="#000000" stroke-width="0.35 px" style="stroke-width:0.35;stroke-miterlimit:4;stroke-dasharray:none;fill:none;fill-rule: evenodd "/>
<title>b'Line216'</title>
</g>
<g id="Line217" transform="translate(9.640000,12.640000) scale(1,-1)">
<path id="Line217_w0000"  d="M 251.0 -78.0 L 250.99999982118607 0.0 " stroke="#000000" stroke-width="0.35 px" style="stroke-width:0.35;stroke-miterlimit:4;stroke-dasharray:none;fill:none;fill-rule: evenodd "/>
<title>b'Line217'</title>
</g>
<g id="Line218" transform="translate(9.640000,12.640000) scale(1,-1)">
<path id="Line218_w0000"  d="M -1.0 -78.0 L -0.9999999999999971 0.0 " stroke="#000000" stroke-width="0.35 px" style="stroke-width:0.35;stroke-miterlimit:4;stroke-dasharray:none;fill:none;fill-rule: evenodd "/>
<title>b'Line218'</title>
</g>
<g id="Line219" transform="translate(9.640000,12.640000) scale(1,-1)">
<path id="Line219_w0000"  d="M 119.0 1.000000000000026 L 119.0 10.0 " stroke="#000000" stroke-width="0.35 px" style="stroke-width:0.35;stroke-miterlimit:4;stroke-dasharray:none;fill:none;fill-rule: evenodd "/>
<title>b'Line219'</title>
</g>
<g id="Line220" transform="translate(9.640000,12.640000) scale(1,-1)">
<path id="Line220_w0000"  d="M 131.0 1.000000000000008 L 131.0 10.0 " stroke="#000000" stroke-width="0.35 px" style="stroke-width:0.35;stroke-miterlimit:4;stroke-dasharray:none;fill:none;fill-rule: evenodd "/>
<title>b'Line220'</title>
</g>
<g id="Line221" transform="translate(9.640000,12.640000) scale(1,-1)">
<path id="Line221_w0000"  d="M 91.75 1.0 L 119.0 1.0 " stroke="#000000" stroke-width="0.35 px" style="stroke-width:0.35;stroke-miterlimit:4;stroke-dasharray:none;fill:none;fill-rule: evenodd "/>
<title>b'Line221'</title>
</g>
<g id="Line222" transform="translate(9.640000,12.640000) scale(1,-1)">
<path id="Line222_w0000"  d="M 29.75 -79.0 L 77.0 -79.0 " stroke="#000000" stroke-width="0.35 px" style="stroke-width:0.35;stroke-miterlimit:4;stroke-dasharray:none;fill:none;fill-rule: evenodd "/>
<title>b'Line222'</title>
</g>
<g id="Line269" transform="translate(9.640000,12.640000) scale(1,-1)">
<path id="Line269_w0000"  d="M 131.0 10.000000000000009 L 255.0 10.0 " stroke="#000000" stroke-width="0.35 px" style="stroke-width:0.35;stroke-miterlimit:4;stroke-dasharray:none;fill:none;fill-rule: evenodd "/>
<title>b'Line269'</title>
</g>
<g id="Line271" transform="translate(9.640000,12.640000) scale(1,-1)">
<path id="Line271_w0000"  d="M 257.0 7.9999999999999964 L 257.0 -86.00000000000004 " stroke="#000000" stroke-width="0.35 px" style="stroke-width:0.35;stroke-miterlimit:4;stroke-dasharray:none;fill:none;fill-rule: evenodd "/>
<title>b'Line271'</title>
</g>
<g id="Line273" transform="translate(9.640000,12.640000) scale(1,-1)">
<path id="Line273_w0000"  d="M 255.0 -88.0 L -5.0 -88.0 " stroke="#000000" stroke-width="0.35 px" style="stroke-width:0.35;stroke-miterlimit:4;stroke-dasharray:none;fill:none;fill-rule: evenodd "/>
<title>b'Line273'</title>
</g>
<g id="Line274" transform="translate(9.640000,12.640000) scale(1,-1)">
<path id="Line274_w0000"  d="M 119.0 10.0 L -5.0 10.0 " stroke="#000000" stroke-width="0.35 px" style="stroke-width:0.35;stroke-miterlimit:4;stroke-dasharray:none;fill:none;fill-rule: evenodd "/>
<title>b'Line274'</title>
</g>
<g id="Line275" transform="translate(9.640000,12.640000) scale(1,-1)">
<path id="Line275_w0000"  d="M -7.0 -86.0 L -7.0 8.0 " stroke="#000000" stroke-width="0.35 px" style="stroke-width:0.35;stroke-miterlimit:4;stroke-dasharray:none;fill:none;fill-rule: evenodd "/>
<title>b'Line275'</title>
</g>
<g id="Arc048" transform="translate(9.640000,12.640000) scale(1,-1)">
<path id="Arc048_nwe0000"  d="M -5.0 10.0 A 2 2 0 0 1 -7 8" stroke="#000000" stroke-width="0.35 px" style="stroke-width:0.35;stroke-miterlimit:4;stroke-dasharray:none;fill:none;fill-rule: evenodd "/>
<title>b'Arc048'</title>
</g>
<g id="Arc049" transform="translate(9.640000,12.640000) scale(1,-1)">
<path id="Arc049_nwe0000"  d="M -7.000000000000005 -86.0 A 2 2 0 0 1 -5 -88" stroke="#000000" stroke-width="0.35 px" style="stroke-width:0.35;stroke-miterlimit:4;stroke-dasharray:none;fill:none;fill-rule: evenodd "/>
<title>b'Arc049'</title>
</g>
<g id="Arc050" transform="translate(9.640000,12.640000) scale(1,-1)">
<path id="Arc050_nwe0000"  d="M 255.0 -87.99999999999999 A 2 2 0 0 1 257 -86" stroke="#000000" stroke-width="0.35 px" style="stroke-width:0.35;stroke-miterlimit:4;stroke-dasharray:none;fill:none;fill-rule: evenodd "/>
<title>b'Arc050'</title>
</g>
<g id="Arc051" transform="translate(9.640000,12.640000) scale(1,-1)">
<path id="Arc051_nwe0000"  d="M 257.0 8.000000000000028 A 2 2 0 0 1 255 10" stroke="#000000" stroke-width="0.35 px" style="stroke-width:0.35;stroke-miterlimit:4;stroke-dasharray:none;fill:none;fill-rule: evenodd "/>
<title>b'Arc051'</title>
</g>
<g id="Circle" transform="translate(9.640000,12.640000) scale(1,-1)">
<circle cx="105.375" cy="5.500000000000016" r="1.85" stroke="#000000" stroke-width="0.35 px" style="stroke-width:0.35;stroke-miterlimit:4;stroke-dasharray:none;fill:none"/>
<title>b'Circle'</title>
</g>
<g id="Circle001" transform="translate(9.640000,12.640000) scale(1,-1)">
<circle cx="144.625" cy="5.500000000000022" r="1.85" stroke="#000000" stroke-width="0.35 px" style="stroke-width:0.35;stroke-miterlimit:4;stroke-dasharray:none;fill:none"/>
<title>b'Circle001'</title>
</g>
<g id="Circle002" transform="translate(9.640000,12.640000) scale(1,-1)">
<circle cx="124.99969135" cy="-83.49999999999994" r="1.85" stroke="#000000" stroke-width="0.35 px" style="stroke-width:0.35;stroke-miterlimit:4;stroke-dasharray:none;fill:none"/>
<title>b'Circle002'</title>
</g>
<g id="Circle005" transform="translate(9.640000,12.640000) scale(1,-1)">
<circle cx="-2.499999999999999" cy="5.5" r="1.85" stroke="#000000" stroke-width="0.35 px" style="stroke-width:0.35;stroke-miterlimit:4;stroke-dasharray:none;fill:none"/>
<title>b'Circle005'</title>
</g>
<g id="Circle006" transform="translate(9.640000,12.640000) scale(1,-1)">
<circle cx="-2.50000000000001" cy="-83.5" r="1.85" stroke="#000000" stroke-width="0.35 px" style="stroke-width:0.35;stroke-miterlimit:4;stroke-dasharray:none;fill:none"/>
<title>b'Circle006'</title>
</g>
<g id="Circle007" transform="translate(9.640000,12.640000) scale(1,-1)">
<circle cx="252.5" cy="5.500000000000032" r="1.85" stroke="#000000" stroke-width="0.35 px" style="stroke-width:0.35;stroke-miterlimit:4;stroke-dasharray:none;fill:none"/>
<title>b'Circle007'</title>
</g>
<g id="Circle008" transform="translate(9.640000,12.640000) scale(1,-1)">
<circle cx="252.5" cy="-83.49999999999999" r="1.85" stroke="#000000" stroke-width="0.35 px" style="stroke-width:0.35;stroke-miterlimit:4;stroke-dasharray:none;fill:none"/>
<title>b'Circle008'</title>
</g>
</svg>