<?xml version="1.0"?>
<!DOCTYPE svg PUBLIC "-//W3C//DTD SVG 1.1//EN" "http://www.w3.org/Graphics/SVG/1.1/DTD/svg11.dtd">
<svg width="269.28mm" height="103.28000000000003mm" viewBox="0 0 269.28 103.28000000000003" xmlns="http://www.w3.org/2000/svg" version="1.1">
<g id="Group043" transform="translate(9.640000,12.640000) scale(1,-1)">
<path id="Arc107_nwe0000"  d="M 249.99999982118607 -78.99999999999997 A 1 1 0 0 1 251 -78" stroke="#000000" stroke-width="0.35 px" style="stroke-width:0.35;stroke-miterlimit:4;stroke-dasharray:none;fill:none;fill-rule: evenodd "/>
<path id="Arc070_nwe0000"  d="M 250.99999982118607 2.8e-14 A 1 1 0 0 1 250 1" stroke="#000000" stroke-width="0.35 px" style="stroke-width:0.35;stroke-miterlimit:4;stroke-dasharray:none;fill:none;fill-rule: evenodd "/>
<path id="Arc089_nwe0000"  d="M 0.0 1.0 A 1 1 0 0 1 -1 1.22465e-16" stroke="#000000" stroke-width="0.35 px" style="stroke-width:0.35;stroke-miterlimit:4;stroke-dasharray:none;fill:none;fill-rule: evenodd "/>
<path id="Arc090_nwe0000"  d="M -1.000000000000002 -78.0 A 1 1 0 0 1 -1.83697e-16 -79" stroke="#000000" stroke-width="0.35 px" style="stroke-width:0.35;stroke-miterlimit:4;stroke-dasharray:none;fill:none;fill-rule: evenodd "/>
<path id="Line311_w0000"  d="M 251.0 -78.0 L 250.99999982118607 0.0 " stroke="#000000" stroke-width="0.35 px" style="stroke-width:0.35;stroke-miterlimit:4;stroke-dasharray:none;fill:none;fill-rule: evenodd "/>
<path id="Line312_w0000"  d="M -1.0 -78.0 L -0.9999999999999971 0.0 " stroke="#000000" stroke-width="0.35 px" style="stroke-width:0.35;stroke-miterlimit:4;stroke-dasharray:none;fill:none;fill-rule: evenodd "/>
<path id="Line300_w0000"  d="M 119.0 1.000000000000026 L 119.0 10.0 " stroke="#000000" stroke-width="0.35 px" style="stroke-width:0.35;stroke-miterlimit:4;stroke-dasharray:none;fill:none;fill-rule: evenodd "/>
<path id="Line299_w0000"  d="M 131.0 1.000000000000008 L 131.0 10.0 " stroke="#000000" stroke-width="0.35 px" style="stroke-width:0.35;stroke-miterlimit:4;stroke-dasharray:none;fill:none;fill-rule: evenodd "/>
<path id="Line316_w0000"  d="M 131.0 10.000000000000009 L 255.0 10.0 " stroke="#000000" stroke-width="0.35 px" style="stroke-width:0.35;stroke-miterlimit:4;stroke-dasharray:none;fill:none;fill-rule: evenodd "/>
<path id="Line315_w0000"  d="M 257.0 7.9999999999999964 L 257.0 -86.00000000000004 " stroke="#000000" stroke-width="0.35 px" style="stroke-width:0.35;stroke-miterlimit:4;stroke-dasharray:none;fill:none;fill-rule: evenodd "/>
<path id="Line317_w0000"  d="M 255.0 -88.0 L -5.0 -88.0 " stroke="#000000" stroke-width="0.35 px" style="stroke-width:0.35;stroke-miterlimit:4;stroke-dasharray:none;fill:none;fill-rule: evenodd "/>
<path id="Line318_w0000"  d="M 119.0 10.0 L -5.0 10.0 " stroke="#000000" stroke-width="0.35 px" style="stroke-width:0.35;stroke-miterlimit:4;stroke-dasharray:none;fill:none;fill-rule: evenodd "/>
<path id="Line319_w0000"  d="M -7.0 -86.0 L -7.0 8.0 " stroke="#000000" stroke-width="0.35 px" style="stroke-width:0.35;stroke-miterlimit:4;stroke-dasharray:none;fill:none;fill-rule: evenodd "/>
<path id="Arc072_nwe0000"  d="M -5.0 10.0 A 2 2 0 0 1 -7 8" stroke="#000000" stroke-width="0.35 px" style="stroke-width:0.35;stroke-miterlimit:4;stroke-dasharray:none;fill:none;fill-rule: evenodd "/>
<path id="Arc071_nwe0000"  d="M -7.000000000000005 -86.0 A 2 2 0 0 1 -5 -88" stroke="#000000" stroke-width="0.35 px" style="stroke-width:0.35;stroke-miterlimit:4;stroke-dasharray:none;fill:none;fill-rule: evenodd "/>
<path id="Arc073_nwe0000"  d="M 255.0 -87.99999999999999 A 2 2 0 0 1 257 -86" stroke="#000000" stroke-width="0.35 px" style="stroke-width:0.35;stroke-miterlimit:4;stroke-dasharray:none;fill:none;fill-rule: evenodd "/>
<path id="Arc074_nwe0000"  d="M 257.0 8.000000000000028 A 2 2 0 0 1 255 10" stroke="#000000" stroke-width="0.35 px" style="stroke-width:0.35;stroke-miterlimit:4;stroke-dasharray:none;fill:none;fill-rule: evenodd "/>
<circle cx="105.375" cy="5.500000000000016" r="1.85" stroke="#000000" stroke-width="0.35 px" style="stroke-width:0.35;stroke-miterlimit:4;stroke-dasharray:none;fill:none"/>
<circle cx="144.625" cy="5.500000000000022" r="1.85" stroke="#000000" stroke-width="0.35 px" style="stroke-width:0.35;stroke-miterlimit:4;stroke-dasharray:none;fill:none"/>
<circle cx="124.99969135" cy="-83.49999999999993" r="1.85" stroke="#000000" stroke-width="0.35 px" style="stroke-width:0.35;stroke-miterlimit:4;stroke-dasharray:none;fill:none"/>
<circle cx="-2.499999999999999" cy="5.5" r="1.85" stroke="#000000" stroke-width="0.35 px" style="stroke-width:0.35;stroke-miterlimit:4;stroke-dasharray:none;fill:none"/>
<circle cx="-2.50000000000001" cy="-83.5" r="1.85" stroke="#000000" stroke-width="0.35 px" style="stroke-width:0.35;stroke-miterlimit:4;stroke-dasharray:none;fill:none"/>
<circle cx="252.5" cy="5.500000000000032" r="1.85" stroke="#000000" stroke-width="0.35 px" style="stroke-width:0.35;stroke-miterlimit:4;stroke-dasharray:none;fill:none"/>
<circle cx="252.5" cy="-83.49999999999999" r="1.85" stroke="#000000" stroke-width="0.35 px" style="stroke-width:0.35;stroke-miterlimit:4;stroke-dasharray:none;fill:none"/>
<path id="Line320_w0000"  d="M 0.0 1.0 L 119.0 1.000000000000004 " stroke="#000000" stroke-width="0.35 px" style="stroke-width:0.35;stroke-miterlimit:4;stroke-dasharray:none;fill:none;fill-rule: evenodd "/>
<path id="Line321_w0000"  d="M 131.0 1.000000000000016 L 249.99999982118607 1.00000000000002 " stroke="#000000" stroke-width="0.35 px" style="stroke-width:0.35;stroke-miterlimit:4;stroke-dasharray:none;fill:none;fill-rule: evenodd "/>
<path id="Line322_w0000"  d="M 249.99999982118607 -78.99999999999996 L 0.0 -78.99999999999996 " stroke="#000000" stroke-width="0.35 px" style="stroke-width:0.35;stroke-miterlimit:4;stroke-dasharray:none;fill:none;fill-rule: evenodd "/>
<title>b'Resting'</title>
</g>
<g id="Arc107" transform="translate(9.640000,12.640000) scale(1,-1)">
<path id="Arc107_nwe0000"  d="M 249.99999982118607 -78.99999999999997 A 1 1 0 0 1 251 -78" stroke="#000000" stroke-width="0.35 px" style="stroke-width:0.35;stroke-miterlimit:4;stroke-dasharray:none;fill:none;fill-rule: evenodd "/>
<title>b'Arc107'</title>
</g>
<g id="Arc070" transform="translate(9.640000,12.640000) scale(1,-1)">
<path id="Arc070_nwe0000"  d="M 250.99999982118607 2.8e-14 A 1 1 0 0 1 250 1" stroke="#000000" stroke-width="0.35 px" style="stroke-width:0.35;stroke-miterlimit:4;stroke-dasharray:none;fill:none;fill-rule: evenodd "/>
<title>b'Arc070'</title>
</g>
<g id="Arc089" transform="translate(9.640000,12.640000) scale(1,-1)">
<path id="Arc089_nwe0000"  d="M 0.0 1.0 A 1 1 0 0 1 -1 1.22465e-16" stroke="#000000" stroke-width="0.35 px" style="stroke-width:0.35;stroke-miterlimit:4;stroke-dasharray:none;fill:none;fill-rule: evenodd "/>
<title>b'Arc089'</title>
</g>
<g id="Arc090" transform="translate(9.640000,12.640000) scale(1,-1)">
<path id="Arc090_nwe0000"  d="M -1.000000000000002 -78.0 A 1 1 0 0 1 -1.83697e-16 -79" stroke="#000000" stroke-width="0.35 px" style="stroke-width:0.35;stroke-miterlimit:4;stroke-dasharray:none;fill:none;fill-rule: evenodd "/>
<title>b'Arc090'</title>
</g>
<g id="Line311" transform="translate(9.640000,12.640000) scale(1,-1)">
<path id="Line311_w0000"  d="M 251.0 -78.0 L 250.99999982118607 0.0 " stroke="#000000" stroke-width="0.35 px" style="stroke-width:0.35;stroke-miterlimit:4;stroke-dasharray:none;fill:none;fill-rule: evenodd "/>
<title>b'Line311'</title>
</g>
<g id="Line312" transform="translate(9.640000,12.640000) scale(1,-1)">
<path id="Line312_w0000"  d="M -1.0 -78.0 L -0.9999999999999971 0.0 " stroke="#000000" stroke-width="0.35 px" style="stroke-width:0.35;stroke-miterlimit:4;stroke-dasharray:none;fill:none;fill-rule: evenodd "/>
<title>b'Line312'</title>
</g>
<g id="Line300" transform="translate(9.640000,12.640000) scale(1,-1)">
<path id="Line300_w0000"  d="M 119.0 1.000000000000026 L 119.0 10.0 " stroke="#000000" stroke-width="0.35 px" style="stroke-width:0.35;stroke-miterlimit:4;stroke-dasharray:none;fill:none;fill-rule: evenodd "/>
<title>b'Line300'</title>
</g>
<g id="Line299" transform="translate(9.640000,12.640000) scale(1,-1)">
<path id="Line299_w0000"  d="M 131.0 1.000000000000008 L 131.0 10.0 " stroke="#000000" stroke-width="0.35 px" style="stroke-width:0.35;stroke-miterlimit:4;stroke-dasharray:none;fill:none;fill-rule: evenodd "/>
<title>b'Line299'</title>
</g>
<g id="Line316" transform="translate(9.640000,12.640000) scale(1,-1)">
<path id="Line316_w0000"  d="M 131.0 10.000000000000009 L 255.0 10.0 " stroke="#000000" stroke-width="0.35 px" style="stroke-width:0.35;stroke-miterlimit:4;stroke-dasharray:none;fill:none;fill-rule: evenodd "/>
<title>b'Line316'</title>
</g>
<g id="Line315" transform="translate(9.640000,12.640000) scale(1,-1)">
<path id="Line315_w0000"  d="M 257.0 7.9999999999999964 L 257.0 -86.00000000000004 " stroke="#000000" stroke-width="0.35 px" style="stroke-width:0.35;stroke-miterlimit:4;stroke-dasharray:none;fill:none;fill-rule: evenodd "/>
<title>b'Line315'</title>
</g>
<g id="Line317" transform="translate(9.640000,12.640000) scale(1,-1)">
<path id="Line317_w0000"  d="M 255.0 -88.0 L -5.0 -88.0 " stroke="#000000" stroke-width="0.35 px" style="stroke-width:0.35;stroke-miterlimit:4;stroke-dasharray:none;fill:none;fill-rule: evenodd "/>
<title>b'Line317'</title>
</g>
<g id="Line318" transform="translate(9.640000,12.640000) scale(1,-1)">
<path id="Line318_w0000"  d="M 119.0 10.0 L -5.0 10.0 " stroke="#000000" stroke-width="0.35 px" style="stroke-width:0.35;stroke-miterlimit:4;stroke-dasharray:none;fill:none;fill-rule: evenodd "/>
<title>b'Line318'</title>
</g>
<g id="Line319" transform="translate(9.640000,12.640000) scale(1,-1)">
<path id="Line319_w0000"  d="M -7.0 -86.0 L -7.0 8.0 " stroke="#000000" stroke-width="0.35 px" style="stroke-width:0.35;stroke-miterlimit:4;stroke-dasharray:none;fill:none;fill-rule: evenodd "/>
<title>b'Line319'</title>
</g>
<g id="Arc072" transform="translate(9.640000,12.640000) scale(1,-1)">
<path id="Arc072_nwe0000"  d="M -5.0 10.0 A 2 2 0 0 1 -7 8" stroke="#000000" stroke-width="0.35 px" style="stroke-width:0.35;stroke-miterlimit:4;stroke-dasharray:none;fill:none;fill-rule: evenodd "/>
<title>b'Arc072'</title>
</g>
<g id="Arc071" transform="translate(9.640000,12.640000) scale(1,-1)">
<path id="Arc071_nwe0000"  d="M -7.000000000000005 -86.0 A 2 2 0 0 1 -5 -88" stroke="#000000" stroke-width="0.35 px" style="stroke-width:0.35;stroke-miterlimit:4;stroke-dasharray:none;fill:none;fill-rule: evenodd "/>
<title>b'Arc071'</title>
</g>
<g id="Arc073" transform="translate(9.640000,12.640000) scale(1,-1)">
<path id="Arc073_nwe0000"  d="M 255.0 -87.99999999999999 A 2 2 0 0 1 257 -86" stroke="#000000" stroke-width="0.35 px" style="stroke-width:0.35;stroke-miterlimit:4;stroke-dasharray:none;fill:none;fill-rule: evenodd "/>
<title>b'Arc073'</title>
</g>
<g id="Arc074" transform="translate(9.640000,12.640000) scale(1,-1)">
<path id="Arc074_nwe0000"  d="M 257.0 8.000000000000028 A 2 2 0 0 1 255 10" stroke="#000000" stroke-width="0.35 px" style="stroke-width:0.35;stroke-miterlimit:4;stroke-dasharray:none;fill:none;fill-rule: evenodd "/>
<title>b'Arc074'</title>
</g>
<g id="Circle028" transform="translate(9.640000,12.640000) scale(1,-1)">
<circle cx="105.375" cy="5.500000000000016" r="1.85" stroke="#000000" stroke-width="0.35 px" style="stroke-width:0.35;stroke-miterlimit:4;stroke-dasharray:none;fill:none"/>
<title>b'Circle028'</title>
</g>
<g id="Circle029" transform="translate(9.640000,12.640000) scale(1,-1)">
<circle cx="144.625" cy="5.500000000000022" r="1.85" stroke="#000000" stroke-width="0.35 px" style="stroke-width:0.35;stroke-miterlimit:4;stroke-dasharray:none;fill:none"/>
<title>b'Circle029'</title>
</g>
<g id="Circle027" transform="translate(9.640000,12.640000) scale(1,-1)">
<circle cx="124.99969135" cy="-83.49999999999993" r="1.85" stroke="#000000" stroke-width="0.35 px" style="stroke-width:0.35;stroke-miterlimit:4;stroke-dasharray:none;fill:none"/>
<title>b'Circle027'</title>
</g>
<g id="Circle030" transform="translate(9.640000,12.640000) scale(1,-1)">
<circle cx="-2.499999999999999" cy="5.5" r="1.85" stroke="#000000" stroke-width="0.35 px" style="stroke-width:0.35;stroke-miterlimit:4;stroke-dasharray:none;fill:none"/>
<title>b'Circle030'</title>
</g>
<g id="Circle031" transform="translate(9.640000,12.640000) scale(1,-1)">
<circle cx="-2.50000000000001" cy="-83.5" r="1.85" stroke="#000000" stroke-width="0.35 px" style="stroke-width:0.35;stroke-miterlimit:4;stroke-dasharray:none;fill:none"/>
<title>b'Circle031'</title>
</g>
<g id="Circle025" transform="translate(9.640000,12.640000) scale(1,-1)">
<circle cx="252.5" cy="5.500000000000032" r="1.85" stroke="#000000" stroke-width="0.35 px" style="stroke-width:0.35;stroke-miterlimit:4;stroke-dasharray:none;fill:none"/>
<title>b'Circle025'</title>
</g>
<g id="Circle032" transform="translate(9.640000,12.640000) scale(1,-1)">
<circle cx="252.5" cy="-83.49999999999999" r="1.85" stroke="#000000" stroke-width="0.35 px" style="stroke-width:0.35;stroke-miterlimit:4;stroke-dasharray:none;fill:none"/>
<title>b'Circle032'</title>
</g>
<g id="Line320" transform="translate(9.640000,12.640000) scale(1,-1)">
<path id="Line320_w0000"  d="M 0.0 1.0 L 119.0 1.000000000000004 " stroke="#000000" stroke-width="0.35 px" style="stroke-width:0.35;stroke-miterlimit:4;stroke-dasharray:none;fill:none;fill-rule: evenodd "/>
<title>b'Line320'</title>
</g>
<g id="Line321" transform="translate(9.640000,12.640000) scale(1,-1)">
<path id="Line321_w0000"  d="M 131.0 1.000000000000016 L 249.99999982118607 1.00000000000002 " stroke="#000000" stroke-width="0.35 px" style="stroke-width:0.35;stroke-miterlimit:4;stroke-dasharray:none;fill:none;fill-rule: evenodd "/>
<title>b'Line321'</title>
</g>
<g id="Line322" transform="translate(9.640000,12.640000) scale(1,-1)">
<path id="Line322_w0000"  d="M 249.99999982118607 -78.99999999999996 L 0.0 -78.99999999999996 " stroke="#000000" stroke-width="0.35 px" style="stroke-width:0.35;stroke-miterlimit:4;stroke-dasharray:none;fill:none;fill-rule: evenodd "/>
<title>b'Line322'</title>
</g>
</svg>