<?xml version="1.0"?>
<!DOCTYPE svg PUBLIC "-//W3C//DTD SVG 1.1//EN" "http://www.w3.org/Graphics/SVG/1.1/DTD/svg11.dtd">
<svg width="269.28mm" height="103.28000000000003mm" viewBox="0 0 269.28 103.28000000000003" xmlns="http://www.w3.org/2000/svg" version="1.1">
<g id="Group030" transform="translate(9.640000,12.640000) scale(1,-1)">
<path id="Line296_w0000"  d="M 1.5 0.0 L 248.5 0.0 " stroke="#000000" stroke-width="0.35 px" style="stroke-width:0.35;stroke-miterlimit:4;stroke-dasharray:none;fill:none;fill-rule: evenodd "/>
<path id="Line282_w0000"  d="M 0.5 -1.0 L 0.5 -77.0 " stroke="#000000" stroke-width="0.35 px" style="stroke-width:0.35;stroke-miterlimit:4;stroke-dasharray:none;fill:none;fill-rule: evenodd "/>
<path id="Line297_w0000"  d="M 249.5 -77.0 L 249.5 -1.0 " stroke="#000000" stroke-width="0.35 px" style="stroke-width:0.35;stroke-miterlimit:4;stroke-dasharray:none;fill:none;fill-rule: evenodd "/>
<path id="Arc064_nwe0000"  d="M 1.500000000000001 0.0 A 1 1 0 0 1 0.5 -1" stroke="#000000" stroke-width="0.35 px" style="stroke-width:0.35;stroke-miterlimit:4;stroke-dasharray:none;fill:none;fill-rule: evenodd "/>
<path id="Arc065_nwe0000"  d="M 0.5 -77.0 A 1 1 0 0 1 1.5 -78" stroke="#000000" stroke-width="0.35 px" style="stroke-width:0.35;stroke-miterlimit:4;stroke-dasharray:none;fill:none;fill-rule: evenodd "/>
<path id="Arc066_nwe0000"  d="M 248.5 -77.99999999999999 A 1 1 0 0 1 249.5 -77" stroke="#000000" stroke-width="0.35 px" style="stroke-width:0.35;stroke-miterlimit:4;stroke-dasharray:none;fill:none;fill-rule: evenodd "/>
<path id="Arc067_nwe0000"  d="M 249.49999982118607 -0.999999999999942 A 1 1 0 0 1 248.5 6.01741e-14" stroke="#000000" stroke-width="0.35 px" style="stroke-width:0.35;stroke-miterlimit:4;stroke-dasharray:none;fill:none;fill-rule: evenodd "/>
<path id="Arc057_nwe0000"  d="M 43.53680769999996 -77.0 A 1 1 0 0 1 44.5368 -78" stroke="#000000" stroke-width="0.35 px" style="stroke-width:0.35;stroke-miterlimit:4;stroke-dasharray:none;fill:none;fill-rule: evenodd "/>
<path id="Arc060_nwe0000"  d="M 24.486807699999957 -78.0 A 1 1 0 0 1 25.4868 -77" stroke="#000000" stroke-width="0.35 px" style="stroke-width:0.35;stroke-miterlimit:4;stroke-dasharray:none;fill:none;fill-rule: evenodd "/>
<path id="Arc061_nwe0000"  d="M 205.46195770000003 -77.99999999999999 A 1 1 0 0 1 206.462 -77" stroke="#000000" stroke-width="0.35 px" style="stroke-width:0.35;stroke-miterlimit:4;stroke-dasharray:none;fill:none;fill-rule: evenodd "/>
<path id="Arc059_nwe0000"  d="M 224.51195770000004 -76.99999999999999 A 1 1 0 0 1 225.512 -78" stroke="#000000" stroke-width="0.35 px" style="stroke-width:0.35;stroke-miterlimit:4;stroke-dasharray:none;fill:none;fill-rule: evenodd "/>
<path id="Line283_w0000"  d="M 25.48680769999995 -59.04922649999995 L 43.53680769999994 -59.049226499999946 " stroke="#000000" stroke-width="0.35 px" style="stroke-width:0.35;stroke-miterlimit:4;stroke-dasharray:none;fill:none;fill-rule: evenodd "/>
<path id="Line284_w0000"  d="M 206.46195770000003 -59.049226499999925 L 224.51195770000004 -59.049226499999925 " stroke="#000000" stroke-width="0.35 px" style="stroke-width:0.35;stroke-miterlimit:4;stroke-dasharray:none;fill:none;fill-rule: evenodd "/>
<path id="Line285_w0000"  d="M 1.499999999999997 -78.0 L 24.486807699999954 -78.0 " stroke="#000000" stroke-width="0.35 px" style="stroke-width:0.35;stroke-miterlimit:4;stroke-dasharray:none;fill:none;fill-rule: evenodd "/>
<path id="Line286_w0000"  d="M 44.536807699999954 -78.0 L 205.46195770000003 -77.99999999999997 " stroke="#000000" stroke-width="0.35 px" style="stroke-width:0.35;stroke-miterlimit:4;stroke-dasharray:none;fill:none;fill-rule: evenodd "/>
<path id="Line287_w0000"  d="M 225.51195770000004 -77.99999999999997 L 248.5 -78.00000000000004 " stroke="#000000" stroke-width="0.35 px" style="stroke-width:0.35;stroke-miterlimit:4;stroke-dasharray:none;fill:none;fill-rule: evenodd "/>
<path id="Line288_w0000"  d="M 25.486807699999947 -59.04922649999995 L 25.486807699999947 -77.0 " stroke="#000000" stroke-width="0.35 px" style="stroke-width:0.35;stroke-miterlimit:4;stroke-dasharray:none;fill:none;fill-rule: evenodd "/>
<path id="Line289_w0000"  d="M 43.53680769999993 -59.049226499999946 L 43.53680769999993 -77.0 " stroke="#000000" stroke-width="0.35 px" style="stroke-width:0.35;stroke-miterlimit:4;stroke-dasharray:none;fill:none;fill-rule: evenodd "/>
<path id="Line290_w0000"  d="M 206.46195770000003 -59.04922649999991 L 206.46195770000003 -76.99999999999997 " stroke="#000000" stroke-width="0.35 px" style="stroke-width:0.35;stroke-miterlimit:4;stroke-dasharray:none;fill:none;fill-rule: evenodd "/>
<path id="Line291_w0000"  d="M 224.51195770000004 -59.04922649999991 L 224.51195770000004 -76.99999999999997 " stroke="#000000" stroke-width="0.35 px" style="stroke-width:0.35;stroke-miterlimit:4;stroke-dasharray:none;fill:none;fill-rule: evenodd "/>
<path id="Line293_w0000"  d="M 257.0 7.9999999999999964 L 257.0 -86.00000000000004 " stroke="#000000" stroke-width="0.35 px" style="stroke-width:0.35;stroke-miterlimit:4;stroke-dasharray:none;fill:none;fill-rule: evenodd "/>
<path id="Line292_w0000"  d="M 255.0 -88.0 L -5.0 -88.0 " stroke="#000000" stroke-width="0.35 px" style="stroke-width:0.35;stroke-miterlimit:4;stroke-dasharray:none;fill:none;fill-rule: evenodd "/>
<path id="Line294_w0000"  d="M -7.0 -86.0 L -7.0 8.0 " stroke="#000000" stroke-width="0.35 px" style="stroke-width:0.35;stroke-miterlimit:4;stroke-dasharray:none;fill:none;fill-rule: evenodd "/>
<path id="Arc063_nwe0000"  d="M -5.0 10.0 A 2 2 0 0 1 -7 8" stroke="#000000" stroke-width="0.35 px" style="stroke-width:0.35;stroke-miterlimit:4;stroke-dasharray:none;fill:none;fill-rule: evenodd "/>
<path id="Arc056_nwe0000"  d="M -7.000000000000005 -86.0 A 2 2 0 0 1 -5 -88" stroke="#000000" stroke-width="0.35 px" style="stroke-width:0.35;stroke-miterlimit:4;stroke-dasharray:none;fill:none;fill-rule: evenodd "/>
<path id="Arc062_nwe0000"  d="M 255.0 -87.99999999999999 A 2 2 0 0 1 257 -86" stroke="#000000" stroke-width="0.35 px" style="stroke-width:0.35;stroke-miterlimit:4;stroke-dasharray:none;fill:none;fill-rule: evenodd "/>
<path id="Arc058_nwe0000"  d="M 257.0 8.000000000000028 A 2 2 0 0 1 255 10" stroke="#000000" stroke-width="0.35 px" style="stroke-width:0.35;stroke-miterlimit:4;stroke-dasharray:none;fill:none;fill-rule: evenodd "/>
<circle cx="105.375" cy="5.500000000000016" r="1.25" stroke="#000000" stroke-width="0.35 px" style="stroke-width:0.35;stroke-miterlimit:4;stroke-dasharray:none;fill:none"/>
<circle cx="144.625" cy="5.500000000000022" r="1.25" stroke="#000000" stroke-width="0.35 px" style="stroke-width:0.35;stroke-miterlimit:4;stroke-dasharray:none;fill:none"/>
<circle cx="124.99969135" cy="-83.5" r="1.25" stroke="#000000" stroke-width="0.35 px" style="stroke-width:0.35;stroke-miterlimit:4;stroke-dasharray:none;fill:none"/>
<circle cx="-2.499999999999999" cy="5.5" r="1.25" stroke="#000000" stroke-width="0.35 px" style="stroke-width:0.35;stroke-miterlimit:4;stroke-dasharray:none;fill:none"/>
<circle cx="-2.50000000000001" cy="-83.5" r="1.25" stroke="#000000" stroke-width="0.35 px" style="stroke-width:0.35;stroke-miterlimit:4;stroke-dasharray:none;fill:none"/>
<circle cx="252.5" cy="5.500000000000032" r="1.25" stroke="#000000" stroke-width="0.35 px" style="stroke-width:0.35;stroke-miterlimit:4;stroke-dasharray:none;fill:none"/>
<circle cx="252.5" cy="-83.49999999999999" r="1.25" stroke="#000000" stroke-width="0.35 px" style="stroke-width:0.35;stroke-miterlimit:4;stroke-dasharray:none;fill:none"/>
<path id="Line295_w0000"  d="M -4.999999999999999 10.0 L 255.0 10.000000000000009 " stroke="#000000" stroke-width="0.35 px" style="stroke-width:0.35;stroke-miterlimit:4;stroke-dasharray:none;fill:none;fill-rule: evenodd "/>
<title>b'Top'</title>
</g>
<g id="Line296" transform="translate(9.640000,12.640000) scale(1,-1)">
<path id="Line296_w0000"  d="M 1.5 0.0 L 248.5 0.0 " stroke="#000000" stroke-width="0.35 px" style="stroke-width:0.35;stroke-miterlimit:4;stroke-dasharray:none;fill:none;fill-rule: evenodd "/>
<title>b'Line296'</title>
</g>
<g id="Line282" transform="translate(9.640000,12.640000) scale(1,-1)">
<path id="Line282_w0000"  d="M 0.5 -1.0 L 0.5 -77.0 " stroke="#000000" stroke-width="0.35 px" style="stroke-width:0.35;stroke-miterlimit:4;stroke-dasharray:none;fill:none;fill-rule: evenodd "/>
<title>b'Line282'</title>
</g>
<g id="Line297" transform="translate(9.640000,12.640000) scale(1,-1)">
<path id="Line297_w0000"  d="M 249.5 -77.0 L 249.5 -1.0 " stroke="#000000" stroke-width="0.35 px" style="stroke-width:0.35;stroke-miterlimit:4;stroke-dasharray:none;fill:none;fill-rule: evenodd "/>
<title>b'Line297'</title>
</g>
<g id="Arc064" transform="translate(9.640000,12.640000) scale(1,-1)">
<path id="Arc064_nwe0000"  d="M 1.500000000000001 0.0 A 1 1 0 0 1 0.5 -1" stroke="#000000" stroke-width="0.35 px" style="stroke-width:0.35;stroke-miterlimit:4;stroke-dasharray:none;fill:none;fill-rule: evenodd "/>
<title>b'Arc064'</title>
</g>
<g id="Arc065" transform="translate(9.640000,12.640000) scale(1,-1)">
<path id="Arc065_nwe0000"  d="M 0.5 -77.0 A 1 1 0 0 1 1.5 -78" stroke="#000000" stroke-width="0.35 px" style="stroke-width:0.35;stroke-miterlimit:4;stroke-dasharray:none;fill:none;fill-rule: evenodd "/>
<title>b'Arc065'</title>
</g>
<g id="Arc066" transform="translate(9.640000,12.640000) scale(1,-1)">
<path id="Arc066_nwe0000"  d="M 248.5 -77.99999999999999 A 1 1 0 0 1 249.5 -77" stroke="#000000" stroke-width="0.35 px" style="stroke-width:0.35;stroke-miterlimit:4;stroke-dasharray:none;fill:none;fill-rule: evenodd "/>
<title>b'Arc066'</title>
</g>
<g id="Arc067" transform="translate(9.640000,12.640000) scale(1,-1)">
<path id="Arc067_nwe0000"  d="M 249.49999982118607 -0.999999999999942 A 1 1 0 0 1 248.5 6.01741e-14" stroke="#000000" stroke-width="0.35 px" style="stroke-width:0.35;stroke-miterlimit:4;stroke-dasharray:none;fill:none;fill-rule: evenodd "/>
<title>b'Arc067'</title>
</g>
<g id="Arc057" transform="translate(9.640000,12.640000) scale(1,-1)">
<path id="Arc057_nwe0000"  d="M 43.53680769999996 -77.0 A 1 1 0 0 1 44.5368 -78" stroke="#000000" stroke-width="0.35 px" style="stroke-width:0.35;stroke-miterlimit:4;stroke-dasharray:none;fill:none;fill-rule: evenodd "/>
<title>b'Arc057'</title>
</g>
<g id="Arc060" transform="translate(9.640000,12.640000) scale(1,-1)">
<path id="Arc060_nwe0000"  d="M 24.486807699999957 -78.0 A 1 1 0 0 1 25.4868 -77" stroke="#000000" stroke-width="0.35 px" style="stroke-width:0.35;stroke-miterlimit:4;stroke-dasharray:none;fill:none;fill-rule: evenodd "/>
<title>b'Arc060'</title>
</g>
<g id="Arc061" transform="translate(9.640000,12.640000) scale(1,-1)">
<path id="Arc061_nwe0000"  d="M 205.46195770000003 -77.99999999999999 A 1 1 0 0 1 206.462 -77" stroke="#000000" stroke-width="0.35 px" style="stroke-width:0.35;stroke-miterlimit:4;stroke-dasharray:none;fill:none;fill-rule: evenodd "/>
<title>b'Arc061'</title>
</g>
<g id="Arc059" transform="translate(9.640000,12.640000) scale(1,-1)">
<path id="Arc059_nwe0000"  d="M 224.51195770000004 -76.99999999999999 A 1 1 0 0 1 225.512 -78" stroke="#000000" stroke-width="0.35 px" style="stroke-width:0.35;stroke-miterlimit:4;stroke-dasharray:none;fill:none;fill-rule: evenodd "/>
<title>b'Arc059'</title>
</g>
<g id="Line283" transform="translate(9.640000,12.640000) scale(1,-1)">
<path id="Line283_w0000"  d="M 25.48680769999995 -59.04922649999995 L 43.53680769999994 -59.049226499999946 " stroke="#000000" stroke-width="0.35 px" style="stroke-width:0.35;stroke-miterlimit:4;stroke-dasharray:none;fill:none;fill-rule: evenodd "/>
<title>b'Line283'</title>
</g>
<g id="Line284" transform="translate(9.640000,12.640000) scale(1,-1)">
<path id="Line284_w0000"  d="M 206.46195770000003 -59.049226499999925 L 224.51195770000004 -59.049226499999925 " stroke="#000000" stroke-width="0.35 px" style="stroke-width:0.35;stroke-miterlimit:4;stroke-dasharray:none;fill:none;fill-rule: evenodd "/>
<title>b'Line284'</title>
</g>
<g id="Line285" transform="translate(9.640000,12.640000) scale(1,-1)">
<path id="Line285_w0000"  d="M 1.499999999999997 -78.0 L 24.486807699999954 -78.0 " stroke="#000000" stroke-width="0.35 px" style="stroke-width:0.35;stroke-miterlimit:4;stroke-dasharray:none;fill:none;fill-rule: evenodd "/>
<title>b'Line285'</title>
</g>
<g id="Line286" transform="translate(9.640000,12.640000) scale(1,-1)">
<path id="Line286_w0000"  d="M 44.536807699999954 -78.0 L 205.46195770000003 -77.99999999999997 " stroke="#000000" stroke-width="0.35 px" style="stroke-width:0.35;stroke-miterlimit:4;stroke-dasharray:none;fill:none;fill-rule: evenodd "/>
<title>b'Line286'</title>
</g>
<g id="Line287" transform="translate(9.640000,12.640000) scale(1,-1)">
<path id="Line287_w0000"  d="M 225.51195770000004 -77.99999999999997 L 248.5 -78.00000000000004 " stroke="#000000" stroke-width="0.35 px" style="stroke-width:0.35;stroke-miterlimit:4;stroke-dasharray:none;fill:none;fill-rule: evenodd "/>
<title>b'Line287'</title>
</g>
<g id="Line288" transform="translate(9.640000,12.640000) scale(1,-1)">
<path id="Line288_w0000"  d="M 25.486807699999947 -59.04922649999995 L 25.486807699999947 -77.0 " stroke="#000000" stroke-width="0.35 px" style="stroke-width:0.35;stroke-miterlimit:4;stroke-dasharray:none;fill:none;fill-rule: evenodd "/>
<title>b'Line288'</title>
</g>
<g id="Line289" transform="translate(9.640000,12.640000) scale(1,-1)">
<path id="Line289_w0000"  d="M 43.53680769999993 -59.049226499999946 L 43.53680769999993 -77.0 " stroke="#000000" stroke-width="0.35 px" style="stroke-width:0.35;stroke-miterlimit:4;stroke-dasharray:none;fill:none;fill-rule: evenodd "/>
<title>b'Line289'</title>
</g>
<g id="Line290" transform="translate(9.640000,12.640000) scale(1,-1)">
<path id="Line290_w0000"  d="M 206.46195770000003 -59.04922649999991 L 206.46195770000003 -76.99999999999997 " stroke="#000000" stroke-width="0.35 px" style="stroke-width:0.35;stroke-miterlimit:4;stroke-dasharray:none;fill:none;fill-rule: evenodd "/>
<title>b'Line290'</title>
</g>
<g id="Line291" transform="translate(9.640000,12.640000) scale(1,-1)">
<path id="Line291_w0000"  d="M 224.51195770000004 -59.04922649999991 L 224.51195770000004 -76.99999999999997 " stroke="#000000" stroke-width="0.35 px" style="stroke-width:0.35;stroke-miterlimit:4;stroke-dasharray:none;fill:none;fill-rule: evenodd "/>
<title>b'Line291'</title>
</g>
<g id="Line293" transform="translate(9.640000,12.640000) scale(1,-1)">
<path id="Line293_w0000"  d="M 257.0 7.9999999999999964 L 257.0 -86.00000000000004 " stroke="#000000" stroke-width="0.35 px" style="stroke-width:0.35;stroke-miterlimit:4;stroke-dasharray:none;fill:none;fill-rule: evenodd "/>
<title>b'Line293'</title>
</g>
<g id="Line292" transform="translate(9.640000,12.640000) scale(1,-1)">
<path id="Line292_w0000"  d="M 255.0 -88.0 L -5.0 -88.0 " stroke="#000000" stroke-width="0.35 px" style="stroke-width:0.35;stroke-miterlimit:4;stroke-dasharray:none;fill:none;fill-rule: evenodd "/>
<title>b'Line292'</title>
</g>
<g id="Line294" transform="translate(9.640000,12.640000) scale(1,-1)">
<path id="Line294_w0000"  d="M -7.0 -86.0 L -7.0 8.0 " stroke="#000000" stroke-width="0.35 px" style="stroke-width:0.35;stroke-miterlimit:4;stroke-dasharray:none;fill:none;fill-rule: evenodd "/>
<title>b'Line294'</title>
</g>
<g id="Arc063" transform="translate(9.640000,12.640000) scale(1,-1)">
<path id="Arc063_nwe0000"  d="M -5.0 10.0 A 2 2 0 0 1 -7 8" stroke="#000000" stroke-width="0.35 px" style="stroke-width:0.35;stroke-miterlimit:4;stroke-dasharray:none;fill:none;fill-rule: evenodd "/>
<title>b'Arc063'</title>
</g>
<g id="Arc056" transform="translate(9.640000,12.640000) scale(1,-1)">
<path id="Arc056_nwe0000"  d="M -7.000000000000005 -86.0 A 2 2 0 0 1 -5 -88" stroke="#000000" stroke-width="0.35 px" style="stroke-width:0.35;stroke-miterlimit:4;stroke-dasharray:none;fill:none;fill-rule: evenodd "/>
<title>b'Arc056'</title>
</g>
<g id="Arc062" transform="translate(9.640000,12.640000) scale(1,-1)">
<path id="Arc062_nwe0000"  d="M 255.0 -87.99999999999999 A 2 2 0 0 1 257 -86" stroke="#000000" stroke-width="0.35 px" style="stroke-width:0.35;stroke-miterlimit:4;stroke-dasharray:none;fill:none;fill-rule: evenodd "/>
<title>b'Arc062'</title>
</g>
<g id="Arc058" transform="translate(9.640000,12.640000) scale(1,-1)">
<path id="Arc058_nwe0000"  d="M 257.0 8.000000000000028 A 2 2 0 0 1 255 10" stroke="#000000" stroke-width="0.35 px" style="stroke-width:0.35;stroke-miterlimit:4;stroke-dasharray:none;fill:none;fill-rule: evenodd "/>
<title>b'Arc058'</title>
</g>
<g id="Circle021" transform="translate(9.640000,12.640000) scale(1,-1)">
<circle cx="105.375" cy="5.500000000000016" r="1.25" stroke="#000000" stroke-width="0.35 px" style="stroke-width:0.35;stroke-miterlimit:4;stroke-dasharray:none;fill:none"/>
<title>b'Circle021'</title>
</g>
<g id="Circle022" transform="translate(9.640000,12.640000) scale(1,-1)">
<circle cx="144.625" cy="5.500000000000022" r="1.25" stroke="#000000" stroke-width="0.35 px" style="stroke-width:0.35;stroke-miterlimit:4;stroke-dasharray:none;fill:none"/>
<title>b'Circle022'</title>
</g>
<g id="Circle024" transform="translate(9.640000,12.640000) scale(1,-1)">
<circle cx="124.99969135" cy="-83.5" r="1.25" stroke="#000000" stroke-width="0.35 px" style="stroke-width:0.35;stroke-miterlimit:4;stroke-dasharray:none;fill:none"/>
<title>b'Circle024'</title>
</g>
<g id="Circle023" transform="translate(9.640000,12.640000) scale(1,-1)">
<circle cx="-2.499999999999999" cy="5.5" r="1.25" stroke="#000000" stroke-width="0.35 px" style="stroke-width:0.35;stroke-miterlimit:4;stroke-dasharray:none;fill:none"/>
<title>b'Circle023'</title>
</g>
<g id="Circle017" transform="translate(9.640000,12.640000) scale(1,-1)">
<circle cx="-2.50000000000001" cy="-83.5" r="1.25" stroke="#000000" stroke-width="0.35 px" style="stroke-width:0.35;stroke-miterlimit:4;stroke-dasharray:none;fill:none"/>
<title>b'Circle017'</title>
</g>
<g id="Circle020" transform="translate(9.640000,12.640000) scale(1,-1)">
<circle cx="252.5" cy="5.500000000000032" r="1.25" stroke="#000000" stroke-width="0.35 px" style="stroke-width:0.35;stroke-miterlimit:4;stroke-dasharray:none;fill:none"/>
<title>b'Circle020'</title>
</g>
<g id="Circle018" transform="translate(9.640000,12.640000) scale(1,-1)">
<circle cx="252.5" cy="-83.49999999999999" r="1.25" stroke="#000000" stroke-width="0.35 px" style="stroke-width:0.35;stroke-miterlimit:4;stroke-dasharray:none;fill:none"/>
<title>b'Circle018'</title>
</g>
<g id="Line295" transform="translate(9.640000,12.640000) scale(1,-1)">
<path id="Line295_w0000"  d="M -4.999999999999999 10.0 L 255.0 10.000000000000009 " stroke="#000000" stroke-width="0.35 px" style="stroke-width:0.35;stroke-miterlimit:4;stroke-dasharray:none;fill:none;fill-rule: evenodd "/>
<title>b'Line295'</title>
</g>
</svg>